<svg width="607.7" height="827.5" version="1.1" viewBox="0 0 607.7 827.5" xmlns="http://www.w3.org/2000/svg">
    <g transform="matrix(.9727 0 0 .9775 8.728 7.401)" stroke-width=".96">
        <path d="m156.9 825.2c46.71-72.5-79.7-48.16-120.7-51.01-33.59 24.76-41.79-49.63-35.21-7.761 49.1 4.873 101.4 7.158 151 3.036 17.99-19.89 21.83-54.06-19.96-42.56-44.75 1.666-95.41 7.503-80.24-52.28-13.15-38.44 43.67-57.59 29.46-8.001-8.965 38.98 2.407 68.4 47.37 57.57 42.5 10.26 40.6-14.2 31.77-41.39 15.35-27.76-16.23-58.46-4.921-88.62-38.84-28.3-99.6-4.928-147.4-15.71 10.24-7.513 109.3 8.115 131-4.755-40.16-1.741-107.5 7.649-82.7-57.18-15.93-56.81 46.19-47.57 27.46 2.27 3.622 19.78-13.21 58.63 21.11 49.07 39.9 14.49 55.23-29.84 22.08-51.08 25.4-80.11-105.9-39.39-119.1-54.46 32.5-10.05 110.1 26.83 100.4-26.72-27.84-26.14-17.26-67.55-53.39-89.62 35.35-49.59-91.7-30.2-26.62-36.84 32.43-7.481-42.85-70.11 10.1-80.78 20.9-19.11 45.62-26.98 68.73-39.43 33.58-5.716-17.77-57.18-19.27-80.08-40.43-14.86-20.42-80.68-13.01-107.8 53.28 12.83-8.646 107.3 33.48 145 2.112 46.04 82.98 24.49 42.89-15.7-15.86-26.95-45.32-41.52-29.32-84.6-25.49-33.72 36.18-68.89 27.94-20.18 4.145 41.14-18.98 102.5 24.41 126.5 45.69-11.86 8.46-50.36-6.102-56.8 0.7522-24.91-12.13-122.8 31.8-81.19 3.836 32.43-29.07 131.4 26.94 118.9 4.493-24.64 58.4-16.75 12.29-25.8 4.985-30.16-19.89-105.5 19.6-104.4 24.82 20.18-6.327 107.5 12.33 99.94 34.1-3.711 67.1-45.57 99.37-28.81 19.57 55.49 116.6 48.19 91.06-20.31-17.06-51.59 44.51-63.51 28.48-6.208-0.7592 34.04 8.698 83.69-42.72 65.62-42.22-10.16-61.03 12.12-27.59 41.25-0.9734 19.85 25.53 36.54 24.55 58.86 17.99 35.63 28.52 71.21 81.44 51.89 25.64-1.06 118 4.063 48.64 4.282-31.12-6.108-129.2-4.832-80.93 41.74-6.8 51.8 42.41 77.93 90.24 64.25 47.56 13.51-59.06-7.94-69.91 8.489-2.436 19.75 26.48 31.36 11.24 59.58 26.85 18.87-1.533 85.52 59.97 72.63 51.2 6.546-81.15-9.106-30.12 34.79 2.516 22.37-2.069 43.94 11.22 62.43-37.92 47.28 79.14 0.6282 13.58 19.82-27.47 24.53-2.871 70.75-11.73 93.96 27.03-3.443 49.74-6.858 10.65 1.353-24.31 12.38 10.92 55.28-15.82 81.01 13.64 18.59 66.24 7.173 15.37 11.94-42.53-4.823-110.5 15.81-142.2-21.89-23.9-29.27-5.116 56.95-49.54 26.77-39.25 3.5-79.44 8.113-82.12-35.86-17.79 31.41-41.19-19.4-72.55-2.864-43.78-16.44-56.04 11.62-62.34 39.51l-7.479-0.4652zm244.1 0.7706-1.987 0.2187zm12.53-0.1178-7.668-5e-3zm-251.3-2.182c-2.317-3.77-2.317 3.77 0 0zm405.5-2.002c-4.401-2.215 0.0125 4.927 0 0zm-15.02-8.219c-5.891-33.34-68.34-18.65-95.58-17.41-24.58 36.16 62.15 14.68 83.03 21.45 13.51 8.629 11.99 1.178 12.55-4.048zm-107.5-14.88c-5.963-12.47-5.276 9.88 0 0zm-157.2-0.0419c7.595-15.95-20.24 1.837 0 0zm162.2-1.316c-3.136-3.671-1.413 5.151 0 0zm118.9-7.672c-1.757-4.852-3.513 8.928 0 0zm-15.4-2.648c6.45-28.49-39.06 15.01-0.447 1.91zm-37.48-9.6c-9.18-44.09-14.53 48.39 0 0zm13.17 7.737c9.621-37.56-29.17 2.451-0.4868 3.094zm-25.62 0.48c-36.89-11.86 47.79-46.72 33.53-36.01 20.3-7.317-22.57 33.25 11.99 15.52 42.59-51.12-84.55-1.134-21.5-22.77 37.92-2.681 24.74-32.02-5.312-16.53-3.537 17.24-73 12.13-43.3 32.41 19.88-7.313-4.14 48.15 24.6 27.38zm-32.18 1.078c0.6269-18.5-17.74 8.158 0 0zm11.24-0.8383c-2.296-5.305-2.296 5.305 0 0zm85.4-4.32c-2.022-14.75 4.213 3.42-1.751 4.291zm-109.4-19.25c13.59-57.28-40.29-36.66-24.03 8.73 3.107 47.68 19.59-41.81 13.74 9.224 9.249 18.65 13.68-11.97 10.29-17.95zm-28.8 21.97c6.034-30.79-19.44 0.8365 0 0zm-120-0.9052c7.318-34.24-21.27-0.902 0 0zm-41.12-5.189c22.93-28.57-42.29-81.43-21.08-35.31 29.09 9.258-38.26 48.32 17.43 40.02l2.438-1.641zm27.69-3.589c-8.523-44.36 37.32-91.87-3.482-122.5-10.88-32.91 9.886-115-42.97-106-12.9 37.71-34.33 13.43-52.48 30.85-34.95-3.522 55.74 9.453 5.852 6.819-57.98-22.55-43.81 60.57-14.57 77.17 3.265-20.24 75.23 27.19 40.78-5.872 16.96-5.651 57.71-4.469 57.09 27.93-22.65 13.73-35.11 10.44-52.05 13.72-13.43 6.855-23.96-1.692-41.93 4.84-6.948-35.49-23.63-29.24-16.51 3.502 19.55 40.03 122.9-24.96 98.18 53.47-11.74 21.26 19.22 39.25 22.09 16.08zm-13.77-116.6c-4.53-11.55 10.24 2.099 0 0zm-95.92-17.09c-24.19-31.22-1.745-50.9 21.04-50.39 13.52 7.091 50.67-20.68 49.41 24.17-4.659 31.57-35.67 9.925-52.83 22.05-8.853-11.23-6.296 15.15-17.62 4.174zm6.72-6.989c-3.793-5.132-4.85 5.81 0 0zm18-2.16c-4.558-4.263-5.965 4.399 0 0zm-26.4-1.92c-2.317-3.77-2.317 3.77 0 0zm45.6-0.96c-3.535-4.136-4.635 4.277 0 0zm-27.62-2.29c3.286-24.83-23.24 9.024 0 0zm43.86 0.7476c4.927-5.444-7.39 1.62 0 0zm-64.07-3.437-0.3064 1.394zm33.26 1.38c3.92-18.59-11.67-1.53 0 0zm6.993-6.453c-7.878-8.33 1.014 17.98 0.0278 0.157zm17.29 3.31c2.809-22.05-19.01 4.082 0 0zm13.05-6.655c-7.354-16.92 0.6744 18.61 0 0zm-68.96 0.1343c3.014-22.55-13.21-0.0945 0 0zm14.43-1.719c6.795-18.73-17.18 0.9388 0 0zm15.1-6.137c-3.832-22.62-5.358 15.29 0 0zm8.889 2.061c-0.1631-19.57-12.81-0.373 0 0zm14.73-1.706c11.97-15.93-21.52-1.197 0 0zm13.91-6.906c-11.7-24.05 0.8889 19.12 0 0zm-63.73-0.0633c0.1904-8.184-5.943 5.731 0 0zm18.38-2.985c-4.558-4.263-5.965 4.399 0 0zm19.64-2.814-3.428-0.7497zm17.9-3.402c-4.28-3.94-5.374 5.861 0 0zm-10.22 188.7c4.541-20.52-9.954 1.921 0 0zm-7.337-1.746c-14.3-25.52-20.42 8.135-41.81-0.0966 13.69 0.2151 28.44 4.129 41.81 0.0966zm247.7-7.149c-6.532-7.954 3.116 24.34 0 0zm63.54 5.412c-4.088-8.638-2.041 10.25 0 0zm-372.9-0.1633c-4.979 0.0897 3.257 4.784 0 0zm300.1 0.22c1.901-21.24-7.085 9.881 0 0zm37.75-0.48c-3.437-9.821-3.559 9.306 0 0zm67.68-3.303c-1.712-7.693-3.771 4.42 0 0zm-373.3-1.855c-5.046-23.47-36.7 11.65 0 0zm-28.12-1.81c-3.845-9.73-4.341 11.74 0 0zm57.56-9.516c-1.747-39.95-8.429 41.92 0 0zm244.3 6.793c2.609-19.28-14.56 10.51 0 0zm87.12 0.9944c-3.136-3.671-1.413 5.151 0 0zm-352-1.289c-2.032-8.679-7.958 6.062 0 0zm106.3-29.16c-8.33 30.43 5.408 28.71 0 0zm258 27.2c-2.518-5.419-3.143 8.741 0 0zm-86.73-1.49c-4.738-2.037 1.038 6.71 0 0zm-317.8 0.96c-1.264-3.64-2.155 3.718 0 0zm265.7-9.36c-1.666-27.18-2.559 28.4 0 0zm-180.3 7.189c10.76-32.63-28.64-1.261-0.9152 1.842zm51.92-4.976c3.685-18.72-5.098-23.61-2.249 0.2708zm226.9 5.227c-5.965-4.399-4.558 4.263 0 0zm-106.2-4.217c2.47-29.4-6.183 12.45 0 0zm144.3 0.242c3.608-18.55-10.15 5.2 0 0zm-353.2-3.465c-37.86-23.77-19.87 22.73 0 0zm-48.77 3.177c-1.765-3.641-2.86 2.13 0 0zm19.44-2.77c20.53-5.185 60.63-23.15 16.21-21.67-24.56-17.47-34.39 20.37-16.21 21.67zm-15.6-4.487c-4.422-13.04-4.125 13.19 0 0zm300.5-1.203c24.25-27.39-25.91-0.6524 0 0zm99.79-1.62c-1.845-5.85-3.816 3.331 0 0zm-404.2-3.897c-2.317-3.77-2.317 3.77 0 0zm263-8.519c1.117-31.71-12.87 23.33 0 0zm-118-14.28c-22.48-4.439 4.489 36.64 0 0zm-41.24 10.71c-14.06-26.14-12.95 16.73 0 0zm-44.33-0.6332c-13.2-14.17-8.178 9.467 0 0zm8.131 0.241c0.0759-8.647-2.657 6.593 0 0zm234.5 1.184c6.764-18.46-11.26-2.828 0 0zm35.93-4.612c-6.841-15.47-2.579 14.87 0 0zm-22.08-0.9541c-7.013-13.46-8.004 13.85 0 0zm10.86 2.611c1.817-13.62-14.77 4.234 0 0zm-283.4-5.43c-4.328-5.563-3.883 5.046 0 0zm15.75-0.96c-14.23-13.52-16.05 13.59 0 0zm9.6 0.4131c-4.093-6.578-3.043 6.469 0 0zm-53.28 0.0669c-1.264-3.64-2.155 3.718 0 0zm19.2 0c-5.787-4.255-5.787 4.255 0 0zm313.9 0.5367c-2.036-3.652-3.688 2.377 0 0zm-448.5-12.85c-2.191-24.75-4.894 27.59-8.622-8.054-7.439 5.768 7.436 36.07 8.622 8.054zm439.4 7.014c53.1 18.67 59.28-35.18 41.87-67.44-43.72 8.055 16.19 22.1-23.03 34.79-26.7 5.917-82.22 3.357-41.22-27.94 13.51 27.69 85.9-26.23 26.65-6.571-22.43 13.79-80.56-6.093-30.16-9.8 24.32-9.126 97.42 8.836 57.33-18.64 31.13-31.14-19-100.8-11.16-99.94 7.3 45.55-33.29 25.86-52.01 35.75-18.27 26.63-48.1-56.91-7.97-37.8 15.8-34.55 85.2 17.44 58.47-36.8-14.47-14.54 2.385-69.43-31.18-87.03-33.09-55.77 14.18 45.9-36.34 33.28-56.11 31.82-67.86-83.83-1.004-67.73 13.13-1.549 31.58 24.42 25.23-8.144-20-29.44-42.17 2.123-64.74 2.853-18.65 26.95-45.25-54.95-7.935-40.91-0.7438-0.3404 39.97-18.41 9.285-11.93-35.68 5.988-83.47 26.9-46.83 67.67 4.074 41.32 38.05 50.76 26.73 90.81 18 63.38 29.89 128.8 33.88 194.7-34.31 16.13-10 86.23 33.16 61.61 13.66-0.2895 27.32-0.5564 40.97-0.7873zm-38.48-87.51c-30.43-38.22 13.84-55.15 30.98-47.68 24.13-19.46 55.82 12.96 31.76 43.03-21.31-8.4-30.61 3.917-51.92-0.7162 1.279 9.346-7.257 9.388-10.81 5.358zm6.317-6.546c-4.633-5.952-4.633 5.952 0 0zm17.72-1.374c-1.347-7.905-8.144 6.433 0 0zm-16.07-4.2c32.99-19.77-43.64-2.828 0 0zm35.79 1.254c-4.635-4.277-3.535 4.136 0 0zm18.24-1.92c-5.965-4.399-4.558 4.263 0 0zm-32.57-2.184c4.237-17.25-12.63-3.026 0 0zm6.831-2.239c2.276-21.92-7.99 7.1 0 0zm17.89-2.662c-7.289-26.77-18.36 15.68 0 0zm13.03-0.3677c3.005-18.72-11.96 3.136 0 0zm-70.07-4.892c4.537-22.66-11.28-0.7635 0 0zm17.6-2.456c4.051-25.19-27.05 5.837 0 0zm12.87-5.38c-10.93-19.78-5.557 13.99 0 0zm8.139 2.421c1.14-24.42-11.72 4.544 0 0zm16.32-1.932c2.824-25.45-19.95 5.37 0 0zm13.33-5.028c-6.399-19.15-3.123 15.26 0 0zm-62.91-3.232c-4.766-4.359-4.569 6.46 0 0zm17.76-1.808c-4.401-4.098-5.405 4.397 0 0zm19.92-2.4c-4.502-4.729-5.29 6.792 0 0zm16.48-1.063c4.388-6.091-7.945 1.873 0 0zm-79.94-89.2c-42.28-23.29 0.3444-57.15 27.91-50.18 3.556-10.42 18.72 0.4134 25.04-10.45 32.75 25.58 5.494 57.84-16.89 48.46-17.9 9.232-17.65 3.927-36.06 12.17zm6.445-6.117c0.2497-7.6-7.215 6.356 0 0zm-7.507-4.457c47.02-0.8564 14.19-29.72-4.489-2.349zm24.92-0.5505c-4.747-4.673-3.729 6.89 0 0zm19.41-5.429c-7.049-1.953-0.4711 4.836 0 0zm-6.49-3.648c50.68-0.6156 6.069-28.46-5.359-1.7zm24 0.6059c-1.446-5.678-6.879 6.238 0 0zm-50.48-8.307c45.07-21.15-53.3-2.87-5.613 3.013zm35.93-8.93c50.98-30.71-64.13 7.22 0 0zm-47.81-2.989c-3.521-4.344-6.128 4.705 0 0zm16.24-3.463c5.631-7.133-9.665 3.963 0 0zm20.72-6.137c-4.624-4.201-4.624 4.201 0 0zm15.76-3.463c4.388-6.091-7.945 1.873 0 0zm-8.081-41.66c2.317-3.77 2.317 3.77 0 0zm-4.8-8.64c2.317-3.77 2.317 3.77 0 0zm-96.48-36.27c-14.44-28.74 25.52 9.035 0 0zm-3.984-13.65c-8.143-20.95 20.27 7.411 0 0zm187.8 372.9c-3.136-3.671-1.413 5.151 0 0zm-492.3-6.459c-4.214-3.629 1.612 11.16 0 0zm490.1 1.101c3.608-18.55-10.15 5.2 0 0zm2.181-10.37c-1.845-5.85-3.816 3.331 0 0zm-405.9-2.185c-4.374-0.5702 3.505 4.168 0 0zm-105.2-12.39c-4.905-25 12.08-48.83 6.745-6.704 4.496 44.88 3.264-86.08-8.671-19.66 0.5198 5.654-1.038 56.31 1.926 26.36zm143 11.16c-5.114-6.114-5.469 6.154 0 0zm-123.4-10.14c-1.691-27.73-7.217 23.71 0 0zm89.45 4.875c-4.973-11.3-1.627 13.84 0 0zm62.63 2.995c-1.557-7.012-6.286 6.332 0 0zm26.01-2.061c-3.283-6.972-8.541 4.708 0 0zm-61.51-0.9295c0.1692-14.09 31.26 1.074 4.235-11.04-7.586-0.8888-16.62 9.709-4.235 11.04zm27.39-2.841c-0.2945-19.59-15.47 3.681 0 0zm14.42-3.183c-7.123-28.26-10.44 11.52 0 0zm7.394 2.365c4.691-19.84-11.54-5.653 0 0zm-80.34-2.662c-3.029-3.524-0.3385 4.903 0 0zm97.73-3.543c-6.052-21.19-12.02 15.52 0 0zm216.5 0.7773c-5.412-25.29-13.73 14.62 0 0zm-208.4-0.4324c-5.344-25.27-6.162 13.07 0 0zm231.9 0.991c1.638-26.98-31.81 7.388 0 0zm-219.5-3.542c-3.443-18.55-4.333 10.61 0 0zm236.6 2.446c-1.091-27.22-28.62 4.818 0 0zm17.43-1.577c8.642-28.01-32.17 2.974 0 0zm-326.2-5.383c-1.076-17.8-28.2-4.248-2.936-0.8428l0.7195 1.832zm12.43-0.3349c0.0821-27.06-21.51 5.274 0 0zm12.9-1.246c4.377-19.58-12.89-3.188 0 0zm-157.2-3.681-0.06418 2.833zm168.6 2.988c-2.348-24.7-18.06 4.673 0 0zm13.96-3.61c-0.472-18.96-11.47 8.155 0 0zm9.765-0.2578c-5.206-7.349-6.198 8.273 0 0zm7.639-3.361c-6.403-15.28 0.8592 12.91 0 0zm208.4 0.5206c-5.525-9.661-4.582 10.47 0 0zm81.6-0.0715c-3.167-3.103-1.244 6.966 0 0zm-391.2-0.3058c-9.152-8.547 0.5678 6.937 0 0zm345.6-0.8937c-1.446-5.678-6.879 6.238 0 0zm-443.2-14.87c-9.36-31.57-1.703 34.47-0.01976 1.958zm486.9 8.127c-8.11-14.5-2.309 16.7 0 0zm-367.2 3.798c-4.558-4.263-5.965 4.399 0 0zm28.8-2.4c-5.114-6.114-5.469 6.154 0 0zm75.02-0.0118c4.665-19.16-13-1.191 0 0zm-49.58-2.388c-4.624-4.201-4.624 4.201 0 0zm172.7-2.802c8.186-38.97-25.61-1.99 0 0zm41.91-5.933c-8.435-6.555-9.942 9.728 0 0zm99.29 2.255c-0.3522-7.275-5.168 2.117 0 0zm-69.11-4.56c-5.935-6.213-9.397 7.732 0 0zm7.378 0.3743c5.498-6.13-11.18 2.519 0 0zm32.94-3.734c-4.782-7.673-11.4 10.09 0 0zm-237.1-1.808c-4.569-6.46-4.766 4.359 0 0zm-142.1-2.032c-2.317-3.77-2.317 3.77 0 0zm2.467-8.236c-9.918-6.897 3.951 13.94 0 0zm137.5 3.616c-3.343-4.62-2.994 5.569 0 0zm124-3.3c-1.652-11.25-12.14 8.156 0 0zm-121.1-2.959c9.054-19-21.76 2.367 0 0zm121.5-4.104c10.94-30.7-27.34 0.6508 0 0zm139.8-5.657c-2.296-5.305-2.296 5.305 0 0zm-3.256-5.04c3.659-18.14-10.21-0.9 0 0zm-263-2.88c-0.1656-17.26 5.158 6.456-2.386 3.663zm123.4-4.62c-6.811-10.33-8.454 11.42 0 0zm140.6-4.76c-5.111-3.998 1.502 6.206 0 0zm-139.6-7.184c4.078-17.83 3.746 8.856-3.142 2.802zm-245.4-16.31c-12.52-32.3-28.39 14.46 0 0zm234.3 0.7178c-0.4623-19.6-8.084-18.14 0 0zm8.387-6.24c-4.67-32.68-1.088 17.76 0 0zm-266.8 2.88c-3.921-18.09-7.072 11.63 0 0zm32.22-1.59c-3.456-4.04-4.101 5.329 0 0zm15.76-2.113c4.927-5.444-7.39 1.62 0 0zm-24.76-2.537c-2.298-16.94-3.175 8.819 0 0zm114.8 1.65c4.377-27.49-17.97-6.921 0 0zm267.2-0.4496c1.249-7.868-6.406 4.739 0 0zm-487.4-14.64c-8.785-46.49-17.73 50.47 0 0zm-7.527 9.6c-7.834-22.79 18.33-22.95 0 0zm130.9 1.338c-0.5662-17.16-17.25 8.693 0 0zm28.55-1.098c-4.558-4.263-5.965 4.399 0 0zm332.5-1.737c0.205-23.03-9.307 4.658 0 0zm-348.3-3.47c-6.779-6.972-1.063 11.02 0 0zm33.02 1.255c-5.712-4.578-5.144 6.454 0 0zm-26.71-2.382c-2.927-11.6-2.588 10.94 0 0zm6.553 0.1502c-2.036-3.652-3.688 2.377 0 0zm9.122-0.5374c6.156-12.86-16 0.6147 0 0zm237.1-0.8929c-1.347-7.905-8.144 6.433 0 0zm-384.7-4.608-0.06418 2.833zm92.99 0.3293c-3.363-19.74-7.515 9.094 0 0zm-10.58 0.3724c7.565-35.13 35.42-15.27 52.4-28.25 18.52-23.69 38.55 48.2 57.58 1.488-14.22-51.94-29.33-103.9-50.62-153.4-12.29-32.25-48.7-31.96-18.7-70.32 18.3-13.57 11.06-32.69 45.65-21.3 22.49 4.366 23.71-58.32 41.39-21.96 53.45-33.38 42.53 109.4 106.6 48.95 29.17-12.74 87.29-21.54 49.7-63.16-9.903-72.82-65.4-5.034-99.06-8.437 8.938-28.19 109.5-32.82 54.25-69.19-61.27 27.45-121.7 59.99-181.8 91.09-15.82 11.76-87.29 39.38-124.1 61.25-49.18 10.73 1.648 61.78 18.34 40.6 13.5-17.55 34.16-11.46 47.8-27.44 40.65 21.64 13.66 58.41-15.23 54.85-10.8 19.41-36.67 12.75-50.89-11.74 4.927 20.7 44.06 118.8 33.54 52.4-1.435-26.41 30.41-10.61 39.27-28.67 20.72-13.43 55.21 16.53 32.74 40.37-16.22-10.54-8.75 15.05-29.12 3.998-1.814 18.48-20.58 2.301-26 15 8.765 21.22 96.72-29.77 83.61 35.79-28.95 37.66-79.29 19.62-73.28-27.53-36.63-1.247 20.01 60.75 0.2278 86.07zm219.1-252.8c-40.72-28.23-1.439-55.57 15.94-55.72 15.25-18.88 45.98-14.27 46.62 22.5-17.68 22.71-41.24 11.1-58.96 35.28l-2.68-1.524zm4.775-8.014c-3.297-3.268-3.775 5.365 0 0zm-0.6953-5.66c62.34-36.26-48.05 4.404 0 0zm16.84-0.4797c-0.6444-5.57-5.947 5.13 0 0zm-17.56-14.44c46.81-37.15-58.5 16.26 0 0zm35.97 5.216c-3.297-3.268-3.775 5.365 0 0zm-6.336-3.568c51.01-13.16-3.604-27.06-5.693-4e-3zm22.05-3.099c0.9805-5.069-6.531 6.24 0 0zm-64.85-8.113c-0.6444-5.57-5.947 5.13 0 0zm40.41-2.916c51.23-16.97-19.64-21.97-6.35 1.574zm-24.09-4.764c-0.6444-5.57-5.947 5.13 0 0zm18.24-8.64c-0.3451-5.366-6.051 5.91 0 0zm16.73-7.579c2.822-6.885-7.328 5.184 0 0zm-62.37 54.68c-22.7-28.5 27.19 1.47 0 0zm-7.68-14.81c-12.85-25.18 25.01 5.736 0 0zm17.46-78.06c4.193-7.832 3.997 6.641 0 0zm-127.6 351.6c-4.004-12.21-4.427 10.82 0 0zm238.2 2.759c4.388-6.091-7.945 1.873 0 0zm-406-2.231c-0.09123-4.891-3.167 3.295 0 0zm339-4.607c-4.929-21.46-4.363 17.37 0 0zm40.97 1.901c-2.84-13.99-1.096 11.98 0 0zm99.56 2.16c-3.411-5.755-2.526 5.129 0 0zm-366.2-0.2547c6.927-22.2-21.84 0.1645 0 0zm286.8-2.625c36.37-6.703-29.58-15.97-3.124 0.6684l3.015-0.6449zm26.55 0.48c-4.624-4.201-4.624 4.201 0 0zm-211.8-1.923c-2.135-11.91-11.06 7.239 0 0zm-87.23-2.619c-4.601-21.17-5.698 13.68 0 0zm7.037 1.77c2.878-18.58-11.75-5.289 0 0zm309.3-0.1074c-4.624-4.201-4.624 4.201 0 0zm-25.17-1.2c2.024-13-11.72-6.47 0 0zm-269-2.415c5.9-18.8-14.4-0.423 0 0zm286.2-0.8325c-0.6865-25.55-23.22 7.102 0 0zm-334.3-2.139c-1.557-7.012-6.286 6.332 0 0zm62.29-3.918c-5.541-19.03-4.333 15.01 0 0zm48.86 3.028c2.266-30.82-24.02 6.528 0 0zm236.3 0.9639c3.637-18.07-19.79-4.604 0 0zm-462.2-11.9c5.575-22.93 9.055 32.12 8.791-12.33 8.049-27.53-11.05-53.21-12.51-11.16 1 3.348 3.807 53.43 3.72 23.48zm19.28 9.235c-3.206-5.25-1.292 6.827 0 0zm73.78 0.4428c8.817-28.78-19.16-19.69 0 0zm315.8-2.453c40.04-18.36-53.27-3.746-8.441 1.89zm-277.5-0.0929c-3.39-5.12-4.341 6.13 0 0zm213.9 0.72c4.657-12.35-12.74 2.841 0 0zm-326-16c-2.226-41.91-1.639 42.11 0 0zm131.9 11.33c-1.557-7.012-6.286 6.332 0 0zm299.6-3.799c24.21-22.89-59.33 8.031-4.735 0.9208l3.026-0.5885zm-282.3-0.1084-3.428-0.7497zm177-0.6946c11.07-28.24-26.72-0.9877 0 0zm-123.1-4.295c-1.193-12.39-11.35 6.664 0 0zm174.2 0.1232c-4.308-3.537-4.976 4.554 0 0zm-323.5-0.4233c-1.765-3.641-2.86 2.13 0 0zm413.5-3.017c-5.025-1.106 0.0632 5.148 0 0zm-72.72 0.6168c-3.63-4.787-5.802 5.287 0 0zm-339.4-5.239c-6.771-11.69-0.8109 12.71 0 0zm349.5 3.262c-5.339-4.115-6.36 4.328 0 0zm59.93-4.668c-0.625-14.25-8.54 4.423 0 0zm-395.3-0.9536c2.823-27.07-23.65-17.85 0 0zm362.2 0.8875-3.428-0.7497zm-235.6-1.599c-1.108-26.99-14.18 1.551 0 0zm125.6-0.2826c3.581-12.32-13.87 3.95 0 0zm-271.5-2.025c-2.317-3.77-2.317 3.77 0 0zm43.04-2.891c-1.713-15.3 10.15-49.35-9.012-20.78 0.68 3.128 7.806 26.99 9.012 20.78zm28-4.934c14.79 1.356 30.26-17.4 5.896-8.908 23.07-60.56-35.38 5.144-12.26 10.84zm-120.4-9.751c-4.409-37.09-2.165 28.32 0 0zm100.7 10.97c-6.564-10.33-6.091 7.817 0 0zm363.4 0.9067c-2.664-7.36-5.556 5.58 0 0zm-142.7-4.675c3.292-20.3-13.96-2.079 0 0zm-213.7-3.57c12.79-35.99-41.16 2.89 0 0zm85.13-2.955c5.503-11.67-12.65 2.527 0 0zm-131-2.591c2.611-24.48-24.01-17.78 0 0zm72.12-2.122c21.95-21.38-24.62-5.33 0 0zm57.22-4.624c-0.1296-34.6-22.88 10.04 0 0zm125.2-1.706c1.7-53.68-33.4-6.311 0 0zm-205.6-5.072c-4.307-12.19-6.714 10.43 0 0zm334.1-0.5827c-2.155-3.718-1.264 3.64 0 0zm11.52-3.417c-3.136-3.671-1.413 5.151 0 0zm-3.056-6.091c-0.1065-17.75-8.472 7.639 0 0zm-266.4 0.8562c-1.047-14.71-13.23 7.534 0 0zm-150.1-5.3c-0.3475-16.42-11.43 2.176 0 0zm147.3-6.211c-4.416-3.292-10.78 7.554 0 0zm268.4-0.478c-3.411-5.755-2.526 5.129 0 0zm-422.9-1.374c-0.0912-4.891-3.167 3.295 0 0zm38.92-0.0663c-4.624-4.201-4.624 4.201 0 0zm-8.835-4.028c-2.706-24.18-9.648 5.93 0 0zm117 1.054c2.348-24.62-16.51-11.7 0 0zm126.2-3.313c-5.405-9.719-6.509 9.098 0 0zm-219.6 0.9048c7.245-7.608-8.63 2.058 0 0zm-9.508-2.478c9.566-22.81-22.51-1.474 0 0zm30.23-7.533-3.27 0.5815zm200.3 0.2938c-4.979 0.0897 3.257 4.784 0 0zm-217-4.535c-8.483-9.091-1.419 1.71-0.1191 4.584zm228.7 3.138c-1.616-19.77-12.74 9.981 0 0zm-261.7-5.672c43.14-17.79-15.91-7.836 0 0zm40.15 4.834c0.3928-23.61-9.69 0.2069 0 0zm26.43-3.835c-3.871-5.525-5.984 6.508 0 0zm-10.67-1.981c7.637-24.38-29.2 4.624 0 0zm259.3-7.089c47.93 2.875 8.345-63.52 0.6978-50.64-9.636-0.452-55.03 19.55-23.4 13.13-7.411 21.31-14.16 56.77 22.7 37.51zm-17.35-7.636c-9.822-34.75 42.81-40.42 29.17-4.771-9.336-0.1358-21.5 9.9-29.17 4.771zm6.79-3.446c-0.8599-12.02-9.021 5.303 0 0zm21.38-4.406c-3.831-9.665-5.553 9.255 0 0zm-9.122-2.512c6.844-34.5-33.78 9.343 0 0zm5.282-16.75c-3.793-9.721-7.263 8.038 0 0zm-202.1 40.05c5.028-5.633-14.85 5.171 0 0zm-91.08-3.656c-0.4049-20.44-12.48-1.461 0 0zm40.36-0.0651c-0.7344-19.18-11.23-2.208 0 0zm177.2-0.0986c1.814-26.42-18.78-20.96 0 0zm144-2.491c-3.444-4.7-1.587 7.055 0 0zm-354.2-2.012c-6.547-22.94-7.224 11.67 0 0zm-35 0.5647c-0.6444-5.57-5.947 5.13 0 0zm116.2-1.856c-1.262-32.18-24.27 11.75 0 0zm269.1-1.659c0.2104-16.71-8.894 4.36 0 0zm-335.6-1.204c2.348-22.35-22.1 4.481 0 0zm-32.95-2.049c-4.766-4.359-4.569 6.46 0 0zm46.08-3.611c0.1504-16.52-10.97-2.59 0 0zm-28.4-2.618c3.287-5.118-6.612 2.651 0 0zm350-0.8594c-3.996-6.185-2.01 4.985 0 0zm-17.28-2.88c-2.585-43.13-17.35 7.784 0 0zm-409 0.9123c0.4427-17.49-10.89 4.706 0 0zm327.1-2.592c17.6-23.37-21.8-2.104 0 0zm-233.5-1.614c-1.446-5.678-6.879 6.238 0 0zm185.5-3.666c-3.005-22.73-8.741 10.52 0 0zm-135.1-1.629c-0.355-23.1-15.96-2.888 0 0zm-113.7 0.365c-0.3451-5.366-6.051 5.91 0 0zm-7.932-5.245c-4.462-26.88-6.183 12.35 0 0zm24.27-1.92c3.634-5.653-9.359 6.086 0 0zm-10.56-0.8724c3.245-16.52-14.63-1.059 0 0zm238.5-4.619c0.0671-22.53-21.54-14.5 0 0zm126.8-2.743c-7.69-10.26-3.741 9.418 0 0zm-351.1 0.4834c-1.42-23.09-17.77 2.708 0 0zm15.1-1.546c-6.021-3.74-2.719 5.743 0 0zm-51.97-3.734c-7.802-3.17 3.996 9.32 0 0zm42.98 1.537c-0.0339-18.11-11.13-0.3388 0 0zm-26.4-3.338c2.274-21.39-19.55 3.62 0 0zm368.7 0.3789c5.137-20.87-17.05-5.372 0 0zm-317.3-2.078c-3.833-4.825-5.14 8.04 0 0zm331-1.385c-0.5114-19.58-7.484 9.852 0 0zm-341.3 0.34c7.258-23.2-23.9 2.229 0 0zm-51.89-0.1555c-3.297-3.291-4.157 4.53 0 0zm115.7-1.134c8.705-10.32-13 0.5526 0 0zm-90.72-2.898c-3.864-22.7-12.53 7.123 0 0zm34.56-0.7677c-2.483-3.915-3.295 3.993 0 0zm-62.84-1.024c-0.6444-5.57-5.947 5.13 0 0zm35.15-2.746c-5.626-21.68-8.274 9.492 0 0zm31.77-2.144c-7.452-13.3 1.476 13.77 0 0zm182 3.122c4.965-19.31-14.33-4.107 0 0zm-135.8-0.982c-4.897-26.22-14.04-0.4394 0 0zm264-1.607c11.12-19.17-25.45-17.65 0 0zm18.8-0.4092c-3.073-6.185-4.682 4.089 0 0zm-379.2-3.844c-5.671-3.647-3.28 7.272 0 0zm32.45 1.144c8.273-18.09-21.93-0.695 0 0zm250.7-0.1128c2.129-7.393-8.616 5.827 0 0zm-344.2-2.817c-2.135-5.779-4.463 3.418 0 0zm336.5-0.9564c48-7.717 7.825-31.63-4.786-2.391zm-230.1-2.744c0.92-15.95-15.58-4.799 0 0zm255.1-0.6301c-3.869-4.067-6.443 5.523 0 0zm-361.4-2.25c-2.153-20.5-9.438 7.039 0 0zm78.75 0.6561c-0.6444-5.57-5.947 5.13 0 0zm204.9-0.3969c7.748-11.98-13.46 3.401 0 0zm96.67-5.945c-6.837-1.19-2.78 5.211 0 0zm-387.5-3.435c-4.551-2.356 0.3765 7.533 0 0zm101.7 2.198c2.518-7.805-7.197 5.626 0 0zm188.9-2.553c8.157-27.86-29.59 0.3537 0 0zm65.5-5.35c36.29-26.3-55.93 7.802-8.14 3.109zm22.65 6.807c47.47-7.321 10.47-31.52-4.489-2.671zm-237.2-1.228c5.506-23.36-20.36 3.177 0 0zm262.1-1.618c-0.6444-5.57-5.947 5.13 0 0zm13.46-5.29c20.33-35.13-49.96-61.2-35.4-24.57 22.95-42.43 24.97 45.97 35.4 24.57zm18.66-3.823c-3.136-3.671-1.413 5.151 0 0zm-412.5-7.698c33.65-21.05 12.93-60.8-18.99-49.85-15.26-36.67 38.83-7.003 7.559-43.55-60.78-5.59-32.79 101.3 16.57 58.86-29.48-0.3516-43.76 52.16-5.147 34.54zm354.6 4.3c54.2-11.3-10.13-24.87-6.274 0.1007zm52.5-6.386c-11.8-4.26 9.458 19.03 0 0zm-148.4 5.943c4.379-12.03-12.44 3.881 0 0zm57.81-0.4232c-3.535-4.136-4.635 4.277 0 0zm-189.7-4.336c3.296-24.38-23.1 1.449 0 0zm205.6-1.874c1.4-6.779-7.817 6.921 0 0zm-75.49-5.242c3.719-16.55-14.63-4.487 0 0zm149.8-0.5484c-2.652-5.289-2.441 5.29 0 0zm-55.71-0.4425c2.518-7.805-7.197 5.626 0 0zm-329-2.076c13.82-26.24-25.95 4.088 0 0zm346.3-4.682c-3.535-4.136-4.635 4.277 0 0zm-333-2.01c-11.86-19.29 30.57-3.273-3.571-17.84-13.52-2.225-3.745 23.09 3.571 17.84zm210.5-3.904c8.7-12.16-12.11 2.657 0 0zm-207-3.851c-5.244-9.127-4.082 7.744 0 0zm-85.75-0.7952c-3.03-4.182-1.477 3.964 0 0zm142.6-21.12c19.42-0.1597 46.15-33.57 13.64-21.19-11.6-20.18-36.54-94.3-58.48-50.18 20.99 16.74 34.38 97.73-2.186 63.09-20.61-5.559-41.3 23.45-6.67 8.412 17.48 35.15 28.63 8.373 53.7-0.1285zm48.88 17.32c14.11-19.45-22.99-0.9916 0 0zm102.8-2.915c-9.086-27.59-20.53 13.8 0 0zm-196 1.66c-3.663-8.828-5.655 7.847 0 0zm-98.71-3.607c-12.5-10.3 5.147 14.8 0 0zm442.1-1.899c1.249-7.868-6.406 4.739 0 0zm-352.4-1.114c9.487-15.12-17.82-9e-3 0 0zm-14.05-2.02c-3.663-8.828-5.655 7.847 0 0zm-82.38-0.2827c-3.136-3.671-1.413 5.151 0 0zm290-3.337c6.898-12.15-13.2 2.465 0 0zm154.3-1.038c-7.618-19.7-5.582 8.864 0 0zm-393.6-7.196c25.57-28.42-40.43 11.85 0 0zm50.19-10.93c24.34 32.8 1.91-38.41-19.44-0.9624-26.63 24.12 9.244 4.729 19.44 0.9624zm341.7 9.657c-1.845-5.85-3.816 3.331 0 0zm-157.4-1.521c9.928-20.97-23.08-0.8607 0 0zm-33.6-1.439c11.27-20.26-25.4 3.421 0 0zm-123.7-4.54c-2.996-19.18-40.73-69.97-20.24-21.69 3.959 6.002 8.718 35.46 20.24 21.69zm-44.88-9.456c34.41 3.729-0.7383-53.22 4.168-14.06-9.803 10.54-41.38 26.79-4.168 14.06zm-39.83 5.901c1.8-8.93-8.374 5.9 0 0zm162.9-11.69c60.89-7.524 6.705-124-19.88-89.11 17.73 9.681 68.93 57.46 14.89 67.65-43.95-13.5 4.734-92.3-49.09-55.56 5.117 17.37 42.61 56.34 35.22 86.27l9.488-4.503zm-132.8-2.721c16.46-10.45 7.465-34.36 28.73-43.04-45.63-16.88-12.33 48.08-48.2 40.25 0.3602 14.45 13.35 6.822 19.47 2.796zm-68.91-0.5117c-2.483-3.915-3.295 3.993 0 0zm169.3-0.8258c3.489-17.19-14.33 2.208 0 0zm255.5-3.438c-1.292-6.827-3.206 5.251 0 0zm-368.8-3.252c-4.147-8.572-3.848 8.715 0 0zm122.5 1.601c7.371-10.13-15.22 1.238 0 0zm138.8 0.6908c-2.036-3.652-3.688 2.377 0 0zm102.7-4.293c-2.795-19.24-7.631 7.33 0 0zm-371.5 1.025c30.46-22.39-25.03-20.17 0 0zm18.34-1.956c6.162-15.61-17.2 2.58 0 0zm96.48-0.5178c0.7031-14.53-7.341 4.81 0 0zm164.5 0.405c-2.155-3.718-1.264 3.64 0 0zm-94.26-2.402c15.16-28.84-26.91 4.694 0 0zm-58.96-3.648c1.13-10.04-12.64 3.559 0 0zm169.1-2.589c-1.264-3.64-2.155 3.718 0 0zm74.4-0.9034c-1.845-5.85-3.816 3.331 0 0zm-393.3-2.363c8.037-10.78-15.89 7.907 0 0zm259.1-20.83c16.82-24.13-10.77-82.96-36.66-82.48-39.9 29.37 57.42 35.39 17.6 74.07-63.67 4.288-0.7154 51.19 19.06 8.406zm-267.2 20.31c-3.565-3.69-2.237 5.865 0 0zm179.7 1.14c-1.16-7.782-6.465 3.887 0 0zm-133.6-2.833c-2.977-9.359-5.544 8.271 0 0zm150.7-4.617c-10.44-28.52-24.11-42.18-21.89-27.91-25.63-38.5 8.418 57.82 21.89 27.91zm147.1 1.987c-1.765-3.641-2.86 2.13 0 0zm-330.2-2.457c-2.483-3.915-3.295 3.993 0 0zm137.8-0.4015c3.145-8.703-10.31 7.256 0 0zm22.76-1.132c1.262-7.779-7.011 2.434 0 0zm28.91-2.822c-2.773-10.84-5.012 7.024 0 0zm-55.26-1.746c2.957-9.638-12.79 3.216 0 0zm211.4 0.3426c-2.155-3.718-1.264 3.64 0 0zm-226.8-5.379c-1.406-12.78-6.542 5.763 0 0zm-81.98-2.865c-2.949-10.92-11.14 11.66 0 0zm119.7 2.724c-1.16-7.782-6.465 3.887 0 0zm-130.5-1.737c-3.136-3.671-1.413 5.151 0 0zm237.6-0.6146c14.26-27.88-24.4 4.041 0 0zm-78.81-0.325c-2.773-10.84-5.012 7.024 0 0zm-56.04-5.907c-8.86-8.815-0.612 15.23 0 0zm244.8 0.7201c-1.413-5.151-3.136 3.671 0 0zm-333.1-1.017c-2.483-3.915-3.295 3.993 0 0zm75.32-0.888c-1.188-16.36-13.56 4.876 0 0zm35.34 0.3142c0.9767-9.47-9.318 3.702 0 0zm216.6-6.386c-11.09-4.14 6.809 14.82 0 0zm-188 3.12c-3.458-7.191-3.458 7.191 0 0zm35.52 0.96c-2.317-3.77-2.317 3.77 0 0zm71.52-2.206c4.257-20.88-26.23 3.928 0 0zm-162.9-2.571c-1.731-12.92-7.066 10.9 0 0zm97.11 2.434c-1.764-3.641-2.86 2.13 0 0zm-0.9499-10.14c54.39-50.74-74.04 20.44 0 0zm-113.8 5.574c14.75-22.54-28.95 7.155 0 0zm39.87-1.729c-3.458-7.191-3.458 7.191 0 0zm170.9-8.708c40.57 1.104 3.076-72.87-2.163-23.04-48.74 41.57-62.16-70.23-6.546-40.98 26.31 35.44-3.845-46.77-34.28-20.4-61.98 10.06-17.94 86.17 20.59 94.14 8.613 0.8057 14.39-8.02 22.4-9.719zm-23.53 2.964c-2.106-9.616 6.911 3.107 0 0zm-41.53-44.42c4.854-5.312 3.386 5.431 0 0zm-173.9 46.77c-7.728-6.621-8.449 11.37 0 0zm-11.21 1.868c-0.6841-4.841-4.346 6.276 0 0zm108.5 0.0439c-2.773-10.84-5.012 7.024 0 0zm191.6 0.573c-1.845-5.85-3.816 3.331 0 0zm-285.9-7.929c-5.607-3.344-0.3683 4.767 0 0zm88.76-2.249c-4.877-14.58-3.925 8.162 0 0zm21.79-12.69c49.56-12.9-27.2-49.1-9.43-5.302l5.734 10.87 1.242-3.187zm-71.38-0.3095c-10.01-5.904-11.86 15.01 0 0zm-11.7 2.059c-3.565-3.69-2.237 5.865 0 0zm105.8-3.363c-1.765-3.641-2.86 2.13 0 0zm139.2-2.513c-3.136-3.671-1.413 5.151 0 0zm-230.4-0.9033c-3.472-4.046-3.472 4.046 0 0zm225.6-3.785c-5.937-14.35-3.88 9.366 0 0zm-208.3-1.93c-7.692-6.656-8.443 11.75 0 0zm-11.17 2.355c-1.021-4.987-3.59 5.417 0 0zm169.6-1.44c-2.155-3.718-1.264 3.64 0 0zm-8.584-6.48c73.77-51.79-59.47 0.5862 0 0zm-146 0.72c-2.155-3.718-1.264 3.64 0 0zm202.6-1.92c-3.472-4.046-3.472 4.046 0 0zm-164.2-14.48c-9.429-7.277-9.539 11.85 0 0zm-11.99 1.211c-4.289-0.1325 0.7088 4.727 0 0zm14.87-5.875c-2.664-7.36-5.556 5.58 0 0zm147.8-7.793c-3.136-3.671-1.413 5.151 0 0zm-4.643-4.694c-4.449-15.23-6.417 7.553 0 0zm82.63-7.969c-4.273-40.43-21.33 25.85-0.0345 7.575zm-8.182 9.244c-7.139-31.97 18.53-7.777 0 0zm-183.1-2.764c11.7-10.71-19.04 6.363 0 0zm-8.64-0.5367c-3.136-3.671-1.413 5.151 0 0zm-23.52-11.94c-3.45-37.6-21.63 30.15 0.1927 7.464zm-7.901 9.886c-8.021-32.24 18.67-15.19 0 0zm-69.38 0.1937c0.6599-45.6 8.194 21.94 8.064-16.33 0.03049-32.02-23.35 11.06-8.064 16.33zm-39.86-10.8c-1.64-76.5-24.3 46.33 0 0zm-7.737 4.92c-8.568-28.82 17.87-15.98 0 0zm18.62 2.76c-5.92-8.798-8.986 10.51 0 0zm-65.73 1.44c13.17-48.87-32.88-5.182 0 0zm-7.369-2.8c-7.408-29.47 17.67-15.51 0 0zm216.8-0.32c-3.295-3.993-2.483 3.915 0 0zm101.3 0.16c-1.247-5.33-3.755 3.248 0 0zm-202.6-1.543c-1.765-3.641-2.86 2.13 0 0zm5.147-1.977c-0.936-5.124-2.135 5.252 0 0zm69.43-5.46-0.3064 1.394zm-5.751-2.442-0.0642 2.833zm-69.51-0.2592c-2.909-6.567 0.1782 8.483 0 0zm6.442 1.921c-2.317-3.77-2.317 3.77 0 0zm-102.7-1.497c-3.029-3.524-0.3385 4.903 0 0zm54.71-1.623c-1.605-4.739-0.7943 7.187 0 0zm177.7 0.2032c10.3-12.37-15.88 6.134 0 0zm-183.4 0.2768c0.181-7.245-4.234 1.651 0 0zm175.7-1.257c-3.136-3.671-1.413 5.151 0 0zm170.9-15.3c0.7258-46.77-4.861 41.78 0 0zm-19.22 8.352c-2.388-21.08 5.956-89.75 6.919-32.44-1.75 33.52 1.658 40.19 2.397 2.012 8.99-30.47-17.2-49.76-11.28-7.741 0.2091 12.65-2.196 25.89 1.96 38.17zm-273.8 0.048c-8.129-10.26-7.371 9.081 0 0zm136 0.24c-3.295-3.993-2.483 3.915 0 0zm26.4 0c-1.264-3.64-2.155 3.718 0 0zm-210.2-3.731c-6.183-16.07-9.727 14.56 0 0zm98.64-2.238c1.32-19.36 0.4294-93.85-2.274-35.17 1.485 10.32-4.693 27.28 2.274 35.17zm8.981-30.61c-0.8989-107-5.048 99.46 0 0zm10.83 0.9018c6.764-23.44-10.64-47.04-1.239-10.98-2.32 20.74 0.1384 63.26 1.062 19.16zm-173 28.76c-5.054-1.051 3.231 7.067 0 0zm-18.82-4.709c3.917-16.18 12.41 20.85 7.843-10.72 11.81-23.78-7.897-77.8-9.635-26.15 1.059 5.173-2.958 55.02 1.791 36.87zm0.8139-9.779c-7.859-22.29 14.61-4.887 0 0zm1.183-15.32c-10.69-39.49 19.44-11.11 0 0zm109.1-1.133c11.71-27.46-17.96-46.73-11.3-7.003 0.7525 20.78-3.12 40.93 8.455 25.41 1.875 31.35 2.717-11.22 2.842-18.41zm-8.32 13.09c-9.241-42.57 21.12-32.31 0 0zm19.14-29.48c-9.655-53.52 1.63 90.09-0.0667 11.34l0.0667-11.34zm-102.4 34.08c-3.194-20.6-0.678 26.75 0 0zm35.19-5.28c-5.918-30.68 12.05-62.85 6.338-12.6 3.191 67.13 5.48-87.36-8.559-10.69 0.0519 3.895-2.111 56.81 2.22 23.29zm18.68 11.76c-1.605-4.739-0.7943 7.187 0 0zm0.96-17.82c-3.162-36.38-1.248 41.35 0 0zm-54.71-1.143c-2.723-9.901-1.114 9.452 0 0zm395.5-17.34c-10.48-56.98 0.361 49.76 0 0zm-395-10.5c-7.861-39.21 0.09624 53.27 0 0zm54.41 0.949c-5.741-41-0.3674 39.2 0 0zm-146 712.3c1.98-34.2 1.06 35.53 0 0zm-0.06145-15.36c1.84-10.09 2.065 10.11 0 0zm0.3981-23.04c2.017-44.13 1.607 54.79 0 0zm0.08189-23.69c-0.105-26.03 3.095-51.95 1.964-8.275l-0.5556 5.435zm1.627-48.79c1.307-4.394 0.2547 6.125 0 0zm0.2444-25.84c-0.3948-18.08 3.926 10.1 0 0zm0.6043-10.72c0.8163-3.618 0.7673 4.607 0 0zm-1.996-28.26c-2.052-6.291 8.16 2.531 0 0zm-0.8842-9.184c0.8163-3.618 0.7673 4.607 0 0zm0.1114-8.56c1.307-4.394 0.2547 6.125 0 0zm-0.1872-4.377c2.86-2.13 1.765 3.641 0 0zm1.12-7.504c-0.4062-5.204 6.752 3.412 0 0zm-1.044-3.559c0.8163-3.618 0.7673 4.607 0 0zm0-16.32c0.8163-3.618 0.7673 4.607 0 0zm-0.07579-16.78c2.86-2.13 1.765 3.641 0 0zm0.07579-3.383c0.8163-3.618 0.7673 4.607 0 0zm-0.06109-11.04c2.562-25.22-0.06859 26.53 0 0zm1.077-61.24c-6.043-12.59 11.94-0.1694 0 0zm-0.4514-10.36c1.055-21.6-0.1857-67.7 2.605-17.76 0.941 4.403 4.537 17.98-2.605 17.76zm0.8068-51.21c-3.741-37.46 10.36-25.84 0 0zm421.6-343c-0.5362-9.157 6.553 4.711 0 0zm178.8-1.009c-91.69-2.919-183.5-2.369-275.1-6.765 83.35 0.289 166.9 1.542 249.7 1.351 1.456 2.944 43.78 0.9291 25.38 5.415z" fill="#cdcdcd"/>
        <path d="m160.8 826.6c3.03-4.182 1.477 3.964 0 0zm5.411-1.971c2.073-53.96 5.564-102.6-0.0217-157.4-5.339-39.82-10.91-92.21-22.82-100.3 11.14-50.38-35.72-97.73-31.13-123.5-26.17-65.16-61.88-126.2-91.65-189.7 10.88-39.97 84.97-53.89 118.7-74.64 25.26-20.85 66.05-27.82 64.11-42.35 52.19-3.701 99.39-49.86 151.5-66.49 47.78 22.32 53.56 98.33 85.91 142.1 29.35 53.02 44.88 119.3 71.6 168.4 9.024 65.53 36.53 139.3 40.79 210.1 11.18 75.79 12.87 152.7 9.42 228.5-2.404 5.268-3.684-41.53-35.18-25.97-32.26 0.089-88.15-7.282-89.87 12.2-22.5-49.13-8.562 43.91-42.86 21.16-27.64-0.0816-83.71 1.023-27.26-3.925 22.81 7.909 73-0.6936 20.75-4.044-36.7-12.23-86.04 18.09-83.48-30.61-40.4 14.53-136-39.55-134.2 30.69 7.568 9.848-3.4 10.48-4.263 5.633zm228.3-9.48c-14.47-7.209-14.53 5.501 0 0zm-58.56-4.869c-3.472-4.046-3.472 4.046 0 0zm71.81-11.84c5.172-48.45-71.73 4.745-13.25 5.053 3.145 3.37 15.66 2.33 13.25-5.053zm-11.83-6.967c-29.91-4.786 9.977-4.439 2.317-2.236zm-37.42 1.217c-0.3079-46.11-69.19 6.607-14.1 8.173 4.014 3.064 18.22-0.293 14.1-8.173zm-13.92-4.495c-27.74-1.056 14.22-7.991 0 0zm-24.07 6.909c-4.158-8.948-0.1633 19.2 0 0zm49.03 2.928c-6.106-13.12-12.96 10.99 0 0zm0.595-8.229c9.742-22.39-24.3 0.4738 0 0zm188 0.0781c11.81-38.21-4.558-91.72-49.1-60.5-5.182 6.145-77.52 15.28-29.54 28.39 5.189 46.91 39.32 30.34 78.63 32.11zm-20.6-7.863c-4.489-23.29 16.48 0.8434 0 0zm-42.96-0.5666c-10.96-19.91 18.53-6.688 0 0zm9.84 0.2421c-6.857-17.43 8.182-9.419 0 0zm26.59-4.217c4.066-18.37 1.431 16.18 0 0zm13.23-6.138c1.493-25.36 21.58 10.73 0 0zm-26.3-5.089-1.399-3.03 1.399 3.03zm-0.5834-5.471c-6.436-23.94 15.79 6.748 0 0zm3.864-3.298c-2.483-3.915-3.295 3.993 0 0zm7.44 3.178c-4.805-10.84 13.33 2.06 0 0zm9.464-2.05c-6.028-20.09 12.52-6.629 0 0zm-11.54-4.824c2.321-9.661 11.55 3.769 0 0zm-10.17-20.3c3.458-7.191 3.458 7.191 0 0zm-4.8-4.8c3.458-7.191 3.458 7.191 0 0zm-51.22 55.96c29.15 11.1 4.231-50.16-0.2437-27.59 0.1769-20.36-3.791-41.63 7.851-26.55-5.443-18.9 33.36 14.99 17.61-8.987-5.441-7.329 98.78 16.17 71.88-39.04 21.49-69.37-109.7-4.707-89.61-38.63-16.81 15.54 54.86-2.176 71.27 2.691 31.21-23.43-0.7053-78.96-0.0647-114.6-10.1-54.83-22.48-109.4-43.28-161.2 7.77-23.44-42.66-39.21-8.667-34.4-26.66-56.48-43.75-121.1-80.06-171-55.14 18.87-106.6 52.11-160.1 77.28-57.14 29.91-116.5 57.4-173.3 86.44-3.206 41.69 37.84 80.61 47.52 123.5-1.33 15.22 33.21 2.542 5.698 17.29 22.55 25.22 14.89 114.9 47.08 78.97-11.28-22.03 31.88 24.48 13.74-9.919 13.34-4.339 18.75 24.61 23.43-7.618 14.5 31.2 16.62-25.72 28.95 12.03 0.4314 35.42-15.73-7.074-24.94 11.62-19.71-17.71-10.02 53.01-25.97 1.124-10.44-0.8139-1.106 30.04-18.71 6.066-27.46 41.44 12.39 106.3 3.529 157.2 31.54-12.78 47.85 18.6 9.392 7.576-23.97 8.714-8.327 75.26 30.74 56.83 38.49 13.67 18.07-87.61 14.75-46.66-14.44-36.23 70.32-25.56 44.77 16.44-14.36 52.75 59.77 34.35 40.7-12.3 7.552-38.37-23.88-3.207-15.6-21.87 35.8-11.3 4.979-59.55-0.9112-71.65-15.22-35.14 4.504-63.94-17.31-94.42-18.7-24.45 24.54 12.43 5.207-28.34-7.926-14.26-18.21 12.05-11.51-19.7-27.65-23.95 21.43-7.144-6.876-41.24-26.2 15.76 5.721-29.84-26.83-37.85 33.48-12.54-21.13-23.22-1.154-36.61-14.9-8.319-23.37-26.08-9.679-24.91-5.603-27.61-54.78-11.83-27.23-33.53-26.6-19.38 31.03-48.16 14.65-45.45 25.32 11.64 65.95-25.85 66.51-30.86 17.83-4.929 50.37-0.8189 37.68 19.3-21.19-2.716 12.39 36.38 14.75 18.71-6.474 21.46 25.34 27.45-0.1756 31.8 4.589 27.24 29.53 28.24 21.73 15.54-1.209 27.03 3.135 19.54 9.682 46.24 13.29 4.436-6.289 42.15 33.11 43.24-8.31 4.906-32.15 51.88 2.66 56.67-18.83 7.229 22.45 28.54-6.865 24.67-2.671 21.2 22.11 14.09 18.39 20.84-10.73 18.88 9.692 44.17 0.5734 61.37 30.31 15.34-23.12 10.32 2.283 37.32 33.21-11.21-1.309 36.11-1.439 34.9-6.973 28.85 8.047 66.15 28.52 57.89-18.33-0.3298-4.966 19.5-19.66 0.3948-14.27 15.19 0.9944 75.07 6.167 55.23 4.032 11.91 20.64 11.07 29.41 5.759zm-233.2-6.892c-25-3.162 2.041-55.63-8.626-13.07 11.29 22.09 19.03-33.5 11.4 8.657l-1.482 3.983zm239.9-2.269c-2.08-14.79 7.173 7.216 0 0zm-268.4-2.167c0.727-20.38 22.04 10.71 0 0zm-18.48-7.921c-9.106-23.68 28.34 4.435 0 0zm17.98-2.977c3.929-7.86 14.9 6.769 0 0zm227.1-7.815c4.458-25.46 1.784 23.71 0 0zm-120.2 3.12c-5.409-21.83 7.98-6.93 0 0zm-6.343-2.16c0.8323-4.369 0.8323 4.369 0 0zm-66.88-7.836c-3.329-25.5 6.322 6.951 0 0zm-36.83-45.51c1.455-16.48 17.12 9.765 0 0zm31.39-0.1063c-13.96-13.21 22.53-4.633 0 0zm22.76-4.71c2.232-13.8 21.1 6.802 0 0zm-55.57-2.011c0.5234-24.37 24.31 3.026 0 0zm28.59-2.506c-0.2322-22.82-61.68-6.349-42.88-36.19 10.59 23.71 47.77 22.07 46.25 2.734 6.372 41.99 29.54-20.8 28.79 10.67 24.55 7.616-0.9222-31 27.39-4.088 10.2 23.84-28.13 30.92-12.09 10.94-27.36-15.05-6.339 31.81-26.56 3.852-11.51-23.5-10.62 13.73-20.9 12.09zm60.41-10.32c0.0915-23.39-15.2 1.981 0 0zm-90.06-5.175c2.581-7.118-9.294 5.514 0 0zm86.33-8.206c1.747-20.55-12.92 1.458 0 0zm-66.71 22.06c2.317-3.77 2.317 3.77 0 0zm24.96-1.92c2.317-3.77 2.317 3.77 0 0zm243.4-3.709c-4.902-30.58 8.591-25.14 6.189-0.5668l-1.736 0.9144zm5.666-17.05c5.112-20.41-17.78 7.038 0 0zm16.62 14.81c5.607-3.344 0.3683 4.767 0 0zm15.55-5.259c-11.78-11.4 19.39 2.35 0 0zm-24.73-6.309c9.17-8.578 4.059 4.831 0 0zm8.008-1.547c6.007-8.616 8.36 3.433 0 0zm12.58-3.354c-3.418-32.48 29.27 11.56 0 0zm7.084-0.6522c7.765-16.38-16.64 0.7956 0 0zm-259.8 0.6329c-0.7567-6.502 4.8 3.466 0 0zm-70.79-1.239c6.645-8.538 18.74 5.308 0 0zm44.13-2.906c-2.319-5.048 5.802 0.9158 0 0zm-44.65-2.47c4.404-17.89 20.76 6.171 0 0zm28.4-2.864c4.152-17.34 20.51 6.419 0 0zm65.15-0.5912-1.399-3.03 1.399 3.03zm-38.89-1.483c2.674-18.35 20.67 5.566 0 0zm227.4-7.316c3.107-5.359 11.65 3.546 0 0zm6.72-0.8179c5.08-6.262 7.608 5.162 0 0zm6.225-3.017c27.51-9.871 25.77 2.295 0 0zm27.38 0.0248c7.277-4.385 5.588 4.302 0 0zm7.914 0.3333c-0.7251-6.33 9.768 3.043 0 0zm-332.8-4.731c2.731-16.71 16.42 9.506 0 0zm337.4 0.6715c10.84-9.727 22.36 5.044 0 0zm-319.6-2.465c1.502-18.3 20.99 7.266 0 0zm19.91-3.347c7.626-24.33-17.3-20.86-17.67-4.228-10.61-33.22-19.3 25.91-26.42-14.13 2.76-34.64 20.88 21.18 21.52-17.64 11.05 21.85 17.04 4.221 26.02-0.6404 12.37 34.38 10.08-28.29 22.84 8.962-7.217 26.16 0.9973 32.89-16.64 5.694-7.617 5.386 9.244 30.25-9.648 21.99zm6.985-5.415c-0.5193-9.492-12.67 7.275 0 0zm-43.26-7.607c-3.475-5.655-3.475 5.655 0 0zm59.52-1.486c-3.364-5.798-4.157 5.801 0 0zm-42.24-15.79c-3.411-5.755-2.526 5.129 0 0zm22.08-0.0704c-4.058-5.64-4.554 6.802 0 0zm239.4 26.15c1.328-15.14 17.85 6.902 0 0zm16.97-2.006c1.887-15.1 20.2 7.701 0 0zm53.69-1.511c-4.473-23.68 26.89 6.904 0 0zm-320.6 0c2.317-3.77 2.317 3.77 0 0zm286.6-1.523c10.95-5.844-9.16-29.32 9.056-6.199 3.662 5.342-4.727 11.25-9.056 6.199zm18.33-1.017c1.131-16.48 18.05 8.64 0 0zm-57.55-0.9718c12.33-9.514 12.84 3.141 0 0zm17.59-2.569c1.925-17.47-39.04-13.01-11.42-27.49-6.541 17.07 38.2 12.74 34.17-6.25 9.336 34.47 20.99-27.67 26.1 15.04 3.537 27.38-45.1-16.26-44.8 17.81l-2.741 1.76-1.302-0.876zm52.45-7.839c2.154-5.277 0.9065 5.14 0 0zm-354.4-12.93c1.085-18.85 21.72 3.912 0 0zm32.62-0.03348c2.483-3.915 3.295 3.993 0 0zm-15.33-2.836c3.875-18.77 20.48 5.313 0 0zm20.16-2.88c1.367-19.63 23.21 4.627 0 0zm261.8-1.631c5.455-7.336 19.36 3.464 0 0zm-244.5-1.249c2.442-19.03 20.98 4.703 0 0zm258.7-0.4442c2.918-5.648 3.455 4.63 0 0zm-33.1-1.492c5.294-18.72 19.76 6.942 0 0zm-39.78-1.548c0.8162-3.618 0.7675 4.607 0 0zm57.73-0.5772c2.751-18.3 20.42 4.768 0 0zm20.21-1.874c2.017-19.25 21.07 6.359 0 0zm16.8-2.949c5.554-19.34 21.82 6.276 0 0zm-337.5-0.4358c-6.716-19.29 23.52 1.968 0 0zm23.58-0.02 1.394 0.3063zm12.81-10.74c-1.201-17.49 19.91 5.206 0 0zm16.87-3.978c4e-3 -16.69 18.01 8.525 0 0zm-25.13-3.763c0.7114-5.179 4.094 3.963 0 0zm5.414-0.7457c17.63-11.01 12 4.472 0 0zm245.9-0.5207c4.36-14.94 18.69 7.181 0 0zm17.62-2.476c-0.4389-16.86 18.81 6.537 0 0zm19.61-4.597c2.774-15 16.19 8.65 0 0zm-39.34-3.487c-24.5-24.92 108.2-28.43 44.02-16.14 14.85 26.79-47.96-25.99-35.26 19.52l-2.407 0.0293zm56.61 0.7911c0.326-18.18 22.47 9.244 0 0zm-39.88-0.5029c10.19-10.59 18.03 3.016 0 0zm14.99-3.84c2.082-3.968 2.373 3.188 0 0zm-245.8-0.9744c-4.558-8.907 9.26 1.901 0 0zm172.9-0.9936c0.8323-4.369 0.8323 4.369 0 0zm95.45-0.8282c-7.509-29.58 27.3 5.08 0 0zm-342.6-6.514c1.605-18.99 21.23 4.062 0 0zm33.12-2.317c2.237-5.865 3.565 3.69 0 0zm-16.13-2.282c5.226-20.58 20.16 5.136 0 0zm20.25-7.016c13.62-18 12.92 12.73 0 0zm32.66 0.7178c1.264-3.64 2.155 3.718 0 0zm214.3-1.056c1.287-11.63 25.14 2.961 0 0zm-229.7-0.9292c0.8293-18.58 21.97 4.363 0 0zm246-2.469c4.213-9.579 22.88 2.364 0 0zm-18.55-1.754c2.334-17.91 20.94 4.65 0 0zm32.76-0.5184c2.672-8.799 5.035 5.184 0 0zm6.484-0.6529c-2.984-25.31 64.16 6.297 8.322-2.346zm6.272-4.941c-4.271-4.897-4.965 7.199 0 0zm-28.08 2.765c2.431-18.98 20.94 4.974 0 0zm-296.5-1.724c-49.61-54.89 70.7-89.03 56.96-17.69-14.61 14.94-39.05 9.538-56.96 17.69zm8.065-4.494c10.22-6.589 69.1-18.02 32.28-21.32 31.9-27.46-24.37-41.05-23.18-9.324-24.86-45.59-35.81 29.89-9.101 30.65zm-2.806-5.679c-9.376-32.05 29.21 7.482 0 0zm7.088-3.604c-5.314-15.98-11.56 9.455 0 0zm11.01-27.7c-12.01-14.78-6.395 16.73 0 0zm-42.49 38.74c-1.672-6.574 5.398 1.872 0 0zm353.1-2.262c2.9-18.12 20.32 3.374 0 0zm-235.6-2.524c0.8162-3.618 0.7675 4.607 0 0zm176.2-13.68c-0.2062-16.2 19.97 6.894 0 0zm-300.4-2.698c-0.9158-5.802 5.048 2.319 0 0zm317.7-1.142c-0.1435-16.74 18.13 7.49 0 0zm-20.23-2.916c10.06-11.25 16.3 3.046 0 0zm-5.164-1.612c-14.72-0.197 5.44-4.159 0 0zm45.09-0.7382c1.418-15.7 18.82 6.833 0 0zm-22.01-1.343c1.809-12.27 24.84 1.396 0 0zm-32.13-2.743c0.6959-13.67 8.117 8.799 0 0zm71.53 0.1404c-4.035-16.02 22.55 5.55 0 0zm14.65 0.1948c-1.417-24.04 25.09 9.393 0 0zm-40.37-3.626c3.295-3.993 2.483 3.915 0 0zm5.516-0.24c17.29-12.48 10.8 6.271 0 0zm-45.36-3.61c20.07-9.957 107.9-25.27 46.3-10.11-15.28 4.002-30.56 8.322-46.3 10.11zm62.89 0.01c9.049-12.55 15.97 2.992 0 0zm-70.56-1.95c-9.622-17.33 13.96 7.689 0 0zm84.06-3.131c3.243-4.822-0.8189 3.87 0 0zm-79.26-8.359c2.155-3.718 1.264 3.64 0 0zm-285.8-1.841c-0.63-15.53 19.85 4.368 0 0zm290.9 1.12c0.5156-9.936 21.76 1.561 0 0zm-1.822-5.263c-0.2338-19.27 21.71 2.689 0 0zm18.38 0.2231c7.253-8.864 16.62 2.173 0 0zm-291.8-2.844c2.589-16.64 18.73 7.009 0 0zm-20.67 0.4105c-7.181-26.25-3.005-21 12.62-23.7-15.29-31.24 33.13 13.3 14.04-20.65 4.783-10.15-0.2796-7.015 16.75 6.442 7.029-44.94 30.89 43.12 6.473 4.933-36.08-7.02-16.71 46.28-40.06 13.66-8.402 6.608 10.97 20.71-9.829 19.31zm4.8-11.49c-2.652-5.289-2.441 5.29 0 0zm15.36-7.2c-1.264-3.64-2.155 3.718 0 0zm306.9 18.53c-2.319-5.048 5.802 0.9158 0 0zm-15.7-2.324c-0.055-20.15 21.63 3.97 0 0zm20.96 0.2159c3.636-9.714 20.13 3.098 0 0zm-292.7-6.12c2.149-15.9 16.5 7.446 0 0zm291.2 1.313c0.7149-20.48 23.41 1.627 0 0zm18.24 5e-3c6.01-10.96 21.54 3.273 0 0zm-239.5-1.705-0.9572-4.208zm253.8-1.279c1.264-3.64 2.155 3.718 0 0zm-15.48-2.368c2.783-20.24 21.38 3.726 0 0zm-317-1.424c1.907-3.926 2.405 3.172 0 0zm25.33-0.9722c1.457-14.2 17.04 5.19 0 0zm-19.56-1.716c-7.577-29.06 23.55 9.551 0 0zm245.6-5.28c-34.73-38.52 5.877-86.06 46.27-61.53 31.86 43.5-4.668 75.16-46.27 61.53zm12.96 0.7858c48.15 6.957 54.61-53.78 16.55-65.01-27.76 8.02-48.84 17.83-31.99 23.57-13.53 4.336 3.941 48.51 15.44 41.44zm-1.403-18.01c-6.394-29.67 28.9 7.913 0 0zm7.734-2.329c-0.1542-17.22-16.65 7.255 0 0zm12.99-1.2c-6.509-26.91 26.13 6.919 0 0zm7.452-2.29c-0.2433-12.99-12.03 7.619 0 0zm-10.16-16.32c-15.54-20.35 30.06 0.4472 0 0zm5.399-1.266c6.023-16.37-16.84 1.929 0 0zm-326.6 33.11c7.965-2.087-0.5808-20.38 9.834-1.823l-3.678 2.583zm14.59-10.89c2.768-18.51 19.96 3.616 0 0zm15.53 0.5108c1.398-5.255 3.701 3.532 0 0zm-39.18-12c-0.8385-15.01 18.71 3.162 0-7e-5zm58.49-1.304c0.7484-20.36 22.92 1.211 0 0zm-62.45-4.846c-0.1896-17.77-7.766-20.48-12.34-32.05 7.457-21.75 8.695 30.7 21.61 3.157-15.67-21.26 34.28 20.66 15.07-14.58 6.215-13.33 24.83 24.11 15.57-9.36-8.978-26.9 39.62 29.75-0.6846 24.12 12.8 39.93-5.412-9.257-21.59 8.361 14.6 22.33-19.74-10.44-11.43 19.81zm53.56-37.29c-0.9671-7.604-7.244 7.732 0 0zm-33.91 36.24c-1.232-15.75 21.18 5.099 0 0zm91.71-5.419c-3.046-7.229 3.654 3.986 0 0zm262.4-3.803c2.296-5.305 2.296 5.305 0 0zm-344.6-4.8c2.484-4.771 2.484 4.771 0 0zm24.72-1.816c-1.163-15.73 20.16 3.975 8e-5 0zm315.6-1.946c-4.038-8.63 10.36 4.823 0 0zm-398.8-3.866c-4.943-23.89 27.35 3.776 0 0zm79.78-1.249c13.9-14.2 12.28 2.39 0 0zm-65.94-0.2431c2.155-3.718 1.264 3.64 0 0zm78.24-6.183c1.413-5.151 3.136 3.671 0 0zm226.2-1.964c0.01-16.63 17.85 5.584 0 0zm77.17-0.0692c3.136-3.671 1.413 5.151 0 0zm-60.81-6.019c-0.0449-16.9 18.3 6.583 0 0zm-304.3 0.0518c-0.7693-20.42 24.32 0.8339 0 0zm270.1-0.1516c-20.79-22.27 13.55 0.0774 0 0zm-253.7-0.6786c-0.9158-5.802 5.048 2.319 0 0zm268.1-0.873c11.15-11.97 11.9 3.891 0 0zm16.77-5.281c3.706-11.97 21.63 0.5119 0 0zm21.87-0.8594c1.067-16.33 17.47 7.155 0 0zm-304.4-4.115c12.74-23.44 12.83 15.7 0 0zm256.5-1.23c17.31-13.54 102.6-37.69 43.58-15.83-14.37 5.675-28.63 11.79-43.58 15.83zm65.18-0.4136c-2.33-18 20.17 5.866 0 0zm-26.02-6e-3c1.907-3.926 2.405 3.172 0 0zm-50.06-2.448c-9.979-17.32 15.31 6.822 0 0zm55.37 1.768c9.519-11.99 20.71-1.644 0 0zm-269.4-3.208c-2.663-3.997 6.152 4.008 0 0zm286.9-3.013c4.83-12 19.42-0.2966 0 0zm-62.25-8.445c4.315-11.95 20.65 2.014 0 0zm-2.268-4.542c-1.152-18.35 20.45 1.275 0 0zm18.27-1.894c4.677-10.94 21.86 1.705 0 0zm-1.558-4.584c-1.471-18.21 20.73 2.67 0 0zm15.77-0.5618c3.295-3.993 2.483 3.915 0 0zm4.96-1.6c6.626-1.238-6.238-23.08 9.769-4.421l-2.752 4.014zm14.96-8.679c6.399-21.26 13.8-5.982 10.09-3e-3 -2.626 3.075-7.481 2.737-10.09 3e-3zm-103.4-0.9597c-0.8518-4.2 3.207 4.983 0 0zm41.33-6.124c-14.02-25.13 25.7 3.008 0 0zm-19.79-6.624c3.706-7.585 7.58 1.567 0 0zm35.76-0.6606c-1.756-16.67 20.16 4.905 0 0zm-39.6-4.096c-6.918-16.95 15.64 7.195 0 0zm35.9-2.132c8.664-12.46 16.67-0.4908 0 0zm22.38-1.588c-6.236-18.39 11.52-8.183 4.154 0.2768zm-49.05-2.613c17.24-13.84 100.6-43.93 42.82-18.14-13.98 6.662-27.81 14-42.82 18.14zm-13.25-4.5c-12.38-14.41 16.15 2.469 0 0zm52.97 0.7261c2.512-3.807 2.066 4.93 0 0zm25.17-1.045c-1.625-16.73 18.77 5.399 0 0zm-3.44-5.892c5.325-11.74 18.94-3.951 0 0zm-63.18-5.361c15.88-13.57 10.92 4.277 0 0zm-2.336-3.983c-0.1891-20.11 23.46 3.405 0 0zm18.05-3.19c14.39-13.41 13.65 3.742 0 0zm-2.103-6.331c6.589-16.94 12.38 8.538 0 0zm15.84 1.284c2.672-8.799 5.035 5.184 0 0zm4.55-3.069c17.19-16.87 11.63 4.207 0 0zm-1.1-3.592c-3.646-19.81 21.82-0.71 0 0zm18.39-5.068c12.54-11.74 15.01 3.158 0 0zm-68.91-1.769c2.728-8.587 10.4 2.008 0 0zm67.4-1.536c-1.202-18.04 19.86 1.56 0 0zm-70.72-4.011c10.33-7.816 19.15 0.5499 0 0zm13.44-0.1726c18.59-28.26 31.13-8.338 22.19-13.82 5.201-15.65-15.46 20.46-22.19 13.82zm-2.645-5.976c15.66-17.31 10.97 3.534 0 0zm34.33-10.34c6.078-14.7 44.55-20.29 0 0zm-1.92-6.146c16.59-17.39 11.67 2.612 0 0zm28.05-3.965c-7.92-23.95 27.73 1.509 0 0zm68.12 577c-2.903-33.16-8.806 14.41 0 0zm-162.5-3.12c-0.0705-16.29-3.334 17.54 0 0zm-52.74 1.706c10.5-25.31 1.039-91.09-30.29-50.9 5.348 24.62-12.71 63.11 30.29 50.9zm-3.051-60.2 1.394 0.3064zm143.2 52.02c-9.478-8.955-14.12 7.363 0 0zm-18.95-0.96c-15.39-5.737-9.467 4.842 0 0zm-52.37-3.73c-20.15-5.268-17.54 5.608 0 0zm16.84 0.6943-2.342 0.0458zm129.4-3.195c4.173-24.31-11.72 13.92 0 0zm-146.2-9.849c-17.17-11.67-26.24 4.955 0 0zm12.74-0.352c-6.242-2.083-4.435 3.311 0 0zm39.84-1.328c-19.05-3.591-9.765 3.854 0 0zm18.72-0.48c-7.932-7.56-7.604 6.593 0 0zm-44.48-3.6-0.0458 2.342zm-10.48 0.4415c21.85-22.97-55.68-34.76-24.3-0.5348 8.029 2.294 16.19 0.5073 24.3 0.5348zm-12.01-1.88c-1.689-7.681 9.937 4.403 0 0zm10.82-5.974c6.29-9.062 6.096 5.489 0 0zm-17.78-1.434c10.77-12.17 27.74 8.802 0 0zm50.65 6.644c40.49 11.27 20.91-41.84-9.741-19.82 5.167 9.141-4.727 25.83 9.741 19.82zm-0.7216-7.132c11.64-12.82 21.19 8.031 0 0zm-63.27 1.61c-4.426 1.642 3.495 6.59 0 0zm49.82 0.9578c-10.23-15.9-9.955 15.11 0 0zm-12.17-13.39c-5.159-20.19-3.652 16.33 0 0zm11.33 0.8537c-1.307-12.41-13.29 8.952 0 0zm-49.08-2.214c-2.075-13.59-0.4639 16.09 0 0zm182.9-3.2c-8.024-19.81-4.179 19.19 0 0zm-316.4 1.2c1.481-13.48-5.725 5.125 0 0zm12.57-1.742c-2.058-18.27-11.62 8.658 0 0zm142.4-12.48c30.36-4.968 85.28 7.676 59.44-24.73 21.04-19.9-2.494-6.452-3.303-12.96-12.22-13.99 31.44-10.99-3.12-23.4-21.67 13.16-84.02-2.154-70.28 19.15 22.59 4.068-27.91 38.46 6.326 32.14-4.537-21.33 7.521 18.58-12.18 7.989 5.424 6.385 16.04 0.2581 23.11 1.815zm26.5-16.74c-4.151-50.59 21.33-26.65 0 0zm4.8-25.44c-2.296-5.305-2.296 5.305 0 0zm38.4 20.7c-13.28-21.09-11.37 25.42 0 0zm-88.59-7.479c18.93-20.67-23.6-1.107-0.6964 0.4712zm-15.52-32.37c-5.526-18.09 1.463 20.32 0 0zm118.3 0.9282c8.198-37.96-31.84 2.003 0 0zm-80.7-9.852c24.25-35.23-46.48-34.07-1.554-19.9-46.03 9.97 27.2 3.451-15.97 14.61-3.514 9.151 13.14 10.4 17.53 5.292zm25.2 0.3132c17.84-1.829 47.39-10.42 22.01-23.73-4.057 32.32-40.63-21.89-24.09 24.43l0.8388 0.5336zm-51.47-4.214c-5.527-10.76 0.8638 14.24 0 0zm87.05-5.306c-6.945 9.126 7.13 9.481 0 0zm-101.9 6.168c4.61-44.37-31.74-6.803 0 0zm-8.06-11.6c5.787-4.255 5.787 4.255 0 0zm23.07-1.532c4.707-42.65-18.57 8.684-2.536 1.041zm86.33-0.3212c-0.0912-4.891-3.167 3.295 0 0zm-14.52-5.066c-5.825-23.08-34.82 19.56 0 0zm13.26-5.705c-3.746-9.758 2.746 17.76 0 0zm-6.27-3.004c-7.177-3.041-8.845 3.595 0 0zm-96.2-6.691c-3.874-20.79-1.206 16.89 0 0zm16.41-2.64c-2.317-3.77-2.317 3.77 0 0zm51.1-2.88c7.048-0.2648 55.89 1.358 18.43-11.51-6.608-3.738-39.47 9.927-18.43 11.51zm13.38-1.6c1.298-17.69 13.28 4.632 0 0zm-41.12-1.341c-34-21.92 92.13-2.522 38.21-24.34 5.637-12.47-82.56-22.62-59.59 10.32-12.68 20.44-13.35 3.3 21.38 14.02zm-29.78-3.475 1.394 0.3063zm-13.1-8.902c-7.841-37.21-0.8222 27.7 0 0zm111.3 4.486c-5.367-16.79 0.5535 19.1 0 0zm-59.87 1.951c-7.113-5.538-5.535 5.797 0 0zm-47.76-4.56c-2.155-3.718-1.264 3.64 0 0zm11.52-1.92c-1.264-3.64-2.155 3.718 0 0zm1.451-6.338c-7.472-1.146 4.926 6.285 0 0zm95.07-1.278c-3.034-46.23-15.27 5.415 0 0zm-12.04-2.049c-10.72-14.8-14.99 3.257 0 0zm-92.67-9.407c-8.568 1.126 4.686 10.11 0 0zm-106 3.678c6.944-11.12-15.74 3.989 0 0zm194.2-7.646c-2.661-24.38-19.85 15.95 0 0zm-100.1-2.504c-6.102-23.9 2.307 27.11 0 0zm-115.3 4.16c-2.481-3.065-1.894 3.903 0 0zm132.6-7.569c35.12-6.192 44.46-48.73 1.023-23.3-8.304-17.76 5.35-14.7-13.77-29.32 13.79 10.5-6.099-74.3 16.09-35.13 5.218 55.57 34.08-47.74-14.34-17.69-47.27 12.29 14.39 64.41-1.963 73.94 15.33 8.367-15.21 34.78 12.96 31.5zm-15.27-45.06c1.955-8.236 13.84 5.476 0 0zm-1.034-13.96c-3.667-8.815 19.53 4.818 0 0zm-4.805-14.98c12.82-7.85 8.054 5.753 0 0zm30.52-1.64c3.45-10.38 12.33 5.522 0 0zm82.31 66.45c-5.163-19.85-0.0316 18.56 0 0zm-169.7 3.587c-2.155-3.718-1.264 3.64 0 0zm-56.64-1.92c-2.317-3.77-2.317 3.77 0 0zm162.6-1.052c20.07-17.03-23.68-0.5234 0 0zm31.86-1.913c40.2-0.3848 5.974-25.66-11.98 0.1163l3.417 0.7648zm-21.24 0.151c-0.0912-4.891-3.167 3.295 0 0zm-156.9-5.826c-3.472-4.046-3.472 4.046 0 0zm169.4-14.41c37.7-11.75-23.99-4.303 0 0zm-27.6-3.966c12.27-11.84-20.99-6.39-3.075-16.71-18.62-5.635-10.95 26.38 3.075 16.71zm-3.186-3.814c2.283-11.39 11.78 5.024 0 0zm56.61 3.144c-1.248-15.74-16.32 8.45 0 0zm4.38-3.168c-3.626-12.7-0.7848 12.24 0 0zm-35.49-8.959c-7.438-24.11 24.12 19.1 24.82-15.48-8.578-8.147-50.29 7.171-24.82 15.48zm10.64-4.268c-1.046-21.57 13.26-2.345 0 0zm-87.01-2.564c-8.401-19.07 4.798 20.47 0 0zm58.14 6.322c-4.708-5.62-6.551 5.072 0 0zm-11.34-6.846c22.78-7.776-25.64 4.874 0 0zm-3.36-3.728c31-10.63-13.23-2.376 0 0zm68.46 0.9196c0.4733-25.24-8.123-0.149 0 0zm-26.71-15.9c42.96-38.85-64.39-19.22-7.572 3.317zm-14.57-2.602c-6.115-16.7 27.38-18.17 3.481-1.942zm15.36-2.567c-1.039-4.273 6.797 4.685 0 0zm-5.76-3.36 3.09 0.9007zm-97.52-19.11c4.962-17.61-16.59-44.14-5.818-10.19-1.142 6.036-2.954 15.14 5.818 10.19zm68.19-2.734c-2.98-10.62-0.7772 7.674 0 0zm15.88-1.68c44.24-14.14-18.97-89.98-19.27-27.67 12.1 8.103 4.115 35.14 19.27 27.67zm2.955-11.92c-5.922-14.53 12.01 9.654 0 0zm-9.263-5.814c-10.89-29.64 14.6 10.81 0 0zm3.428-11.35c-0.1534-13.01 10.67-1.895 0 0zm-11.92-2.797c-5.748-13.01 13.3 12.94 0 0zm16.3-10.11c6.392-20.06 1.794 10.24 0 0zm35.33 38.17c6.855-10.9-21.15 3.737 0 0zm-95.31-1.937c43.21 3.66 38.46-54.75-3.023-26.29-26.49 2.078-21.12 38.27 3.023 26.29zm-9.621-1.195c6.882-14.3 8.253 4.157 0 0zm8.587-8.297c4.385-14.04 13.55 1.118 0 0zm10.74-3.055c5.417-5.101 10.39 5.91 0 0zm-23.46-2.488c-5.735-6.739 18.51 4.249 0 0zm9.84-0.3197c5.787-4.255 5.787 4.255 0 0zm11.73-2.098c4.499-13.1 11.8 1.859 0 0zm10.35-9.291c5.054-12.97 10.4 1.65 0 0zm65.45 21.47c-12.52-9.585-0.0975 4.119 0 0zm14.23 0.5335c-2.76-16.98-7.734 2.892 0 0zm-7.915-9.414c-3.833-4.825-5.14 8.04 0 0zm-113-11.86c-5.982-5.324-3.393 6.401 0 0zm9.12-2.853c25.53-13.65-27.12-34.11-0.2408-11.27-2.062 4.487-12.22 14.21 0.2408 11.27zm18.33-6.272c5.633-15.1-16.14 2.055 0 0zm18.65-5.991c36.48-3.418 33.69-46.71-3.269-21.36-23.55 8.091 18.46 16.03 3.269 21.36zm12.4-17.1c2.352-13.33 8.517 9.835 0 0zm-53.91 16.15c-3.296-4.534-4.072 7.08 0 0zm-27.58-2.681c9.544-17.38-25.16-38.12 0.2661-13.14 4.654 1.806-11.13 18.9-0.2661 13.14zm121.9 0.3068c-3.358-18.54-8.054-5.944 0 0zm-58.05-4.249c-7.961-18.96-2.493 11.9 0 0zm-54.28-1.925c-1.453-23.25-5.971 6.64 0 0zm34.6 0.2236c5.708-28.55-33.9-12.07 0 0zm-30.73-5.221c-7.27-7.971 3.126 11.13 0 0zm6.525-2.657c-8.479-2.253 2.251 9.031 0 0zm5.698-1.507c-7.602-10.86 2.634 12.75 0 0zm80.35 2.047c10.71-27.18-25.72 3.541 0 0zm-45.94-7.558c40.51-12.23-25.92-29.72 0 0zm-55.29-1.745c-1.101-13.23 25.24-1.421 2.07-22.99-13.08-0.0281-17.42 21.41-2.07 22.99zm3.84-4.943c-2.155-3.718-1.264 3.64 0 0zm47.04 0c-2.483-3.915-3.295 3.993 0 0zm-31.5-5.551c34.91-3.071-25.34-39.43-2.26 3.41zm75.29-1.169c10.08-39.7-49.02-82.47-63.05-37.86 11.11 20.01 31.84 0.9145 39.67 16.97 5.769-30.88 12.51 23.87 23.38 20.89zm-41.64-42.39c-2.679-12.54 12.6 5.212 0 0zm49.23 35.73c-8.429-17.24 4.308 17.89 0 0zm-56.33 1.442c42.3-8.235-22.61-30.58 0.4057-5.907-1.115-2.773-6.016 10.79-0.4057 5.907zm-2.252-7.265c-1.477-3.964-3.03 4.182 0 0zm-75.73-12.06c-7.377-4.307 3.673 10.4 0 0zm24.37 2.869c-4.869-5.949-5.966 7.333 0 0zm25.78-1.467c13.68-20.65-19.54 3.495 0 0zm-13.59-7.355c31.49-8.931-36.43-69.08-26.68-18.53 2.126 14.75 9.8 27.57 26.68 18.53zm-36.76-2.281c16.51-28.83-13.79 8.107 0 0zm10.18-4.625c7.406-13.15-26.61-30.77 0 0zm-144-8.977c52.91-14.29-3.571-75.85-20.29-98.22-71.85 6.743-14.74 71.96 4.587 104.9l6.848-0.6969zm-20.14-55.87c2.154-5.277 0.9065 5.14 0 0zm4.8-5.28c8.455-10.69 14.13 2.75 0 0zm-3.658-8.393c8.737-16.2 12.61 9.722 0 0zm-32.51 1.965c-17.65-22.27 28.61-4.219 0 0zm181.1 66.68c-1.307-35.66-29.78 4.847 0 0zm50.65-1.68c3.829-15.01-15.84 3.762 0 0zm68.88-5.533c-5.034-24.24-4.74 5.678 0 0zm-39.84-4.135c44.44-29.21-22.01-60.97-17.77-13.42 7.1 4.016 5.217 22.42 17.77 13.42zm-15 0.2489c0.6229-8.808-6.806 3.509 0 0zm-19.16-3.199c-4.923-1.208 0.0461 6.397 0 0zm-108.5-17.64c36.33-24.89 111.9-40.49 119.6-75.04-0.4436 7.355-25.68-102.8-63.68-60.16-39.53 28.37-117.9 33.55-128.7 80.92 10.56 52.37 81.31-7.582 36.73-17.11 28.5-32.32 6.137 47.69 46.09 46.64-35.04 32.55 0.5664-32.45-43.01-14-40.36 18.17 1.081 78.11 32.97 38.76zm-20.48-4.8c-0.0331-5.167 3.696-1.083 0 0zm-3.869-11.1c2.86-2.13 1.765 3.641 0 0zm66.74-25.14c-3.758-31.6-69.24-81.06-8.794-63.16 12.13 2.584 21.18 26.78 16.44 25.06-3.812 20.63 38.21 28.6-7.643 38.11zm11.08-6.514c-1.749-33.25-23.79-5.134 0 0zm-12.06-26.85c-2.705-4.116-4.192 4.238 0 0zm-3.36-6.72c-3.472-4.046-3.472 4.046 0 0zm-4.186-8.542c-3.027-24.23-16.2-2.126-3e-3 2.635zm-92.24 32.91 2.34-1.294zm132.5-11.47c-0.7328-21.83-23.08-38.36-12.31-43.11 3.944 5.266 36.05 52.79 12.31 43.11zm6.718-0.5287c-1.576-13.67-8.995 7.73 0 0zm-4.948-12.15c-13.27-9.315-1.145 13.77 0 0zm-131.9 14.16c6.172-9.101 10.05 6.08 0 0zm108.5-8.083c3.262-10.3 4.85 6.275 0 0zm-110.4-1.438c2.265-8.395 9.283 2.765 0 0zm156.5-0.5699c-9.022-14.75-27.21-59.64-9.499-35.3-3.29 12.81 29.36 19.62 9.499 35.3zm1.92-15.44c-9.389-11.97-5.399 13.15 0 0zm-65.61-19.14c7.943-5.93 3.982 6.674 0 0zm34.17-5.933c-4.86-5.265 7.031-1.248 0 0zm14.37-6.384c-5.051-6.772 8.142 3.296 0 0zm21.39 138.6c-1.477-3.964-3.03 4.182 0 0zm54.04-1.655c19.14-19.83-22.6-0.3371 0 0zm-49.72-0.2652c-2.483-3.915-3.295 3.993 0 0zm15.36-2.91-4.302-0.4779zm-19.75-0.8211c-1.06-7.588-5.556 3.066 0 0zm-1.029-7.389c4.454-9.757-10.22 0.5423 0 0zm16.25-3.388c-6.658-2.304 2.016 6.164 0 0zm-4.151-4.17c2.6-11.35-9.586 5.279 0 0zm52.83-19.47c-10.15-32.74-23.12 20.66 0 0zm-17.37-51.61c21.06-6.243 34.49-18.89 31.88-26.86-20.45-32.98-31.85-101.2-80.04-59.52-30.24 25.56 18.06 82.58 48.43 46.4 12.51 16.03-24.03 20.81-30.23 16.03-13.4 7.174 13.05 50.62 29.96 23.94zm-44.46-43.32c-4.56-21.77 58.72-31.35 21.29-6.17-6.856 2.801-14.04 4.728-21.29 6.17zm7.114-3.67c9.707-12.41-10.13 1.05 0 0zm15.12-11.09c-8.084-6.85-2.681 18.19 0 0zm5.452-4.15c-8.16-6.767-0.0409 11.12 0 0zm4.872 3.183c-2.04-6.093-4.602 3.862 0 0zm51.03 34.81c-10.93-15.87 18.8 14.92 27.41-9.273 69.63-13.57 9.472-71.54-4.046-107.9-28.27 16.56-90.32 32.56-45.32 72.01 8.185 14.55 10.83 32.34 21.96 45.13zm8.446-31.02c-17.31-27.5 66.41-35.25 20.51-10.22-5.149 5.706-13.62 7.036-20.51 10.22zm9.552-6.515c-0.1863-11.13-8.729 4.116 0 0zm-6.633-2.861c-2.966-4.159-2.162 6.047 0 0zm12-1.12c-4.793-10.39-4.267 9.245 0 0zm7.68-3.242c-1.95-9.007-6.263 5.358 0 0zm-6.201-1.621c-0.4411-5.91-5.195 4.433 0 0zm11.62-0.4284c8.487-19.55-12.04 1.352 0 0zm-6.378-5.748c-2.652-5.289-2.441 5.29 0 0zm-35.85-6.438c-0.9313-28.85 62.19-27.35 19.66-7.912-5.942 3.365-12.04 9.738-19.66 7.912zm6.61-3.706c-0.4411-5.91-5.195 4.433 0 0zm2.309-5.792c-7.687-7.401 0.1943 8.014 0 0zm5.642-2.146c-2.943-8.891-4.602 6.744 0 0zm4.749 0.5024c-3.343-4.62-2.994 5.569 0 0zm2.608-3.04c1.362-10.34-8.226 2.185 0 0zm10.57-2.9-2.212-1.775zm-10.41-23.84c-6.025-28.06 28.4 5.871 0 0zm-70.71 98.24c-4.064-10.24-4.703 9.14 0 0zm7.665-3.12c-1.16-7.782-6.465 3.887 0 0zm-5.965-1.98c-3.343-4.62-2.994 5.569 0 0zm11.32-0.2721c-0.2776-10.01-8.786 3.483 0 0zm1.822-5.602c-1.269-5.731-4.579 3.914 0 0zm267.9 645.4c-3.543-4.922 8.75 4.05 0 0zm-278.4-15.49c-5.938-18.23 18.49-7.245 0 0zm280.2-23.31c1.956-14.11 2.989 14.36 0 0zm-404.4-5.695c-13.11-4.143 4.284-9.69 0 0zm-165.2-4.922c2.86-2.13 1.765 3.641 0 0zm569.8-14.82c3.369-14.26 1.784 14.63 0 0zm-407.9-3.764c-2.016-14.8 6.015 6.401 0 0zm-89.22-29.04c-3.341-7.049 6.362 1.37 0 0zm-13.6-6.08c-1.786-18.2 9.282 6.97 0 0zm13.03-1.355c-1.322-6.972 6.444 4.72 0 0zm497.5-6.241c-4.278-16.24 3.462 3.432 0 0zm-496.6-2.908c1.395-10.29 3.006 8.449 0 0zm-12.83 0.2372c-3.314-6.203 6.373 0.0692 0 0zm-59.02-5.094c0.8323-4.369 0.8323 4.369 0 0zm66.61-1.854c0.09123-4.891 3.167 3.295 0 0zm4.919-1.666c-5.784-11.26 7.75-5.782 0 0zm-12.54-2.082c-3.331-45.97 10.79-53.72 0 0zm-59.06-2.638c0.8163-3.618 0.7673 4.607 0 0zm158.7 0.1361c-2.291-16.96 6.484 5.67 0 0zm-87.01-9.738c-3.72-31.55 8.982-39.55 0 0zm494-24.15c-3.466-17.16 5.983 7.592 0 0zm-413.1-27.61c2.601-10.74 2.786 11.06 0 0zm408.2-21.39c-2.004-18.89 5.532 9.758 0 0zm-491.7-42.99c3.029-3.524 0.3384 4.903 0 0zm4.407-3.903c-4.076-16.65 9.639-5.154 0 0zm480.8-1.809c-6.124-25.57 6.994 8.917 0 0zm-492.2-0.8598c-5.331-17.22 7.521 1.439 0 0zm-63.05-7.348c2.86-2.13 1.765 3.641 0 0zm62.4-4.743c3.458-7.191 3.458 7.191 0 0zm12.69-1.68c-1.366-17.55 6.919 7.299 0 0zm479.3 1.68c1.264-3.64 2.155 3.718 0 0zm-483.7-7.334c-0.9158-5.802 5.048 2.319 0 0zm-7.872-3.466c-7.164-24.81 11.52-11.2 0 0zm11.93-3.36c-1.333-69.12 7.116 24.12 0 0zm53.49-17.72c-3.521-13.85 7.507 5.467 0 0zm-64.16 0.505 1.394 0.3063zm479.2 0.2396c-1.486-20.05 15.41-1.114 0 0zm-467.7-9.723c-3.974-23.39 9.309-37.77 0 0zm-75.47-29.22c0.8323-4.369 0.8323 4.369 0 0zm-0.07579-6.32c0.8163-3.618 0.7673 4.607 0 0zm536.5-5.92c-6.807-11.28 6.656-4.862 0 0zm-12.37-51.41c-8.616-17.77 7.646 6.24 0 0zm-524.2-6.432c2.317-3.77 2.317 3.77 0 0zm86.51-4.466c-2.449-12.45 7.933 9.874 0 0zm434.8-1.351c2.86-2.13 1.765 3.641 0 0zm-520.8-22.98c2.155-3.718 1.264 3.64 0 0zm0-2.88c1.264-3.64 2.155 3.718 0 0zm508.1-9.36c-0.3053-15.44 5.664 12.14 0 0zm-508.6-2.217c2.86-2.13 1.765 3.641 0 0zm505.4-9.543c1.477-3.964 3.03 4.182 0 0zm-446.3-6.918c-9.61-19.9 9.529 7.048 0 0zm-58.63 0.1976c1.264-3.64 2.155 3.718 0 0zm493-27.85c-7.988-20.58 7.49 5.804 0 0zm-464.2-32.02c-6.463-13.95 7.414 5.848 0 0zm443.6-9.161c-5.613-18.33 13.5-4.226 0 0zm-17.82-50.85c-11.56-16.82 9.688 5.81 0 0zm-5.28-12.6c1.264-3.64 2.155 3.718 0 0zm-398.2-1.598c0.5578-9.879 13.94-0.2829 0 0zm39.21-20.47c6.24-12.38 10.64 2.286 0 0zm343.2-9.042c-9.683-16.51 9.104 7.441 0 0zm-301.8-10.86c0.531-7.277 10.07-0.6545 0 0zm41.26-21.24c6.383-9.941 8.761 2.176 0 0zm239.7-8.504c-5.392-14.02 7.551 7.583 0 0zm-177.3-23.26c5.15-10.92 8.518 2.497 0 0zm225.1-10.63c2.317-3.77 2.317 3.77 0 0zm14.4 0c2.317-3.77 2.317 3.77 0 0zm5.414-1.626c-5.141-10.38 7.97-2.026 0 0zm-86.98-4.521c-9.947-16.06 9.166 6.604 0 0zm74.27 0.9581c-4.242-24.44 8.176 4.264 0 0zm-211.2-2.892c-1.448-12.05 7.57 2.571 0 0zm-69.49-1.028c-3.468-14.71 8.977 5.69 0 0zm88.95-0.1701c1.709-8.816 12.27-1.025 0 0zm-32.32-3.494c3.344-16.81 4.5 11.17 0 0zm236.5 1.732c-3.535-11.72 7.673 5.64 0 0zm-394.8-0.4072c-5.573-10.56 9.319-1.192 0 0zm88.69-0.05645c-4.715-22.16 10.97 2.486 0 0zm-34.63-2.988c-0.4381-9.076 5.788 2.745 0 0zm117-2.372c0.1636-11.19 7.217 6.719 0 0zm-129.4-2.217c-0.7759-18.76 6.822 8.478 0 0zm-54.11-0.1762c3.689-9.73 2.136 6.265 0 0zm12.51 0.8259c-6.221-8.623 8.112-0.3419 0 0zm382.5-0.1941c-0.4771-7.384 4.846 4.276 0 0zm-280.4-0.5075c0.0912-4.891 3.166 3.295 0 0zm293-1.992c0.2778-11.59 4.225 9.634 0 0zm-341-0.8882c1.27-5.731 4.579 3.914 0 0zm104.4-0.6109c0.1636-11.19 7.217 6.718 0 0zm-69.08-1.81c-1.055-10.27 7.237 6.086 0 0zm82.41-1.486c3.397-10.25 2.485 9.817 0 0zm-69.33 0.2705c-6.513-15.6 8.342 4.089 0 0zm-115.2-1.631c2.918-5.648 3.455 4.63 0 0zm402.9 0.6939c-2.319-5.048 5.802 0.9158 0 0zm-389.4-1.655c-4.426-13.8 8.797 3.255 0 0zm41.28-0.5019c1.292-6.827 3.206 5.251 0 0zm12.76-1.015c2.249-9.886 1.487 10.06 0 0zm175.9-0.0033c4.112-10.34 11.58 1.682 0 0zm152.3-5.444c3.838-14.3 2.287 12.37 0 0zm11.76-5.834c1.09-45.3 4.489 25.73 0 0zm-227.9 7.44c2.317-3.77 2.317 3.77 0 0zm-171.3-1.838c-0.01254-4.927 4.401 2.215 0 0zm175.8-3.622c-3.989-27.01 9.443-26.06 0 0zm-171.7-2.46c-2.419-34.34 8.237-13.4 0.524 5.025zm97.58 4.162c-0.0126-4.927 4.401 2.215 0 0zm61.87-2.22c4.104-22.3 4.749 13.17 0 0zm-171.4 0.9376c-4.783-22.06 9.623-7.437 0 0zm61.64-4.214c-0.9158-5.802 5.048 2.319 0 0zm10.37-0.3461c1.264-3.64 2.155 3.718 0 0zm29.99 0.3236c-5.206-14.75 10.38-14.08 0 0zm11.77-7.044c2.222-27.04 3.237 25.69 0 0zm281.8 6.786c0.7114-5.179 4.094 3.963 0 0zm-329.3-10.87c1.078-51.37 4.716 29.37 0 0zm-11.26 7.863c-3.882-32.94 7.99-37.49 0 0zm116.8-1.863c2.483-3.915 3.295 3.993 0 0zm223.7-1.2c-2.551-42.3 7.603-18.73 0 0zm-223.5-8.64c-0.7474-57.08 8.016 9.598 0 0zm-172.1-2.091c-2.428-24.66 5.79 13.78 0 0zm102.6 0.5873c-5.262-13.2 9.168-7.306 0 0zm-83.81-1.697c0.8163-3.618 0.7673 4.607 0 0zm95.57-12.16c2.382-36.73 2.666 30.12 0 0zm293 11.09c-3.421-25.81 7.926-21.63 0 0zm-222.9-3.024c-2.072-34.34 7.987-24.16 0 0zm-171.9-15.68c2.659-37.92 2.878 30.7-0.01453 0.4128zm-11.89 6.708c-3.456-29.35 9.045 4.996 0 0zm101.9-0.4262c-1.548-11.72 6.876 2.952 0 0zm-35.29-1.489c-2.566-37.44 7.476-21.61 0 0zm-11.99-7.4c-1.488-9.96 6.808 4.984 0 0zm47.48 0.6192c-4.265-14.34 9.659 1.907 0 0zm293.6-3.989c-5.214-27.05 7.918 6.024 0 0zm-341.4-6.091c1.521-28.06 5.018 7.844 2.27 1.696zm118.6 1.828c-7.24-13.06 8.799-4.982 0 0zm230.2-10.71c2.317-3.77 2.317 3.77 0 0zm-293.1-3.546c-2.319-5.048 5.802 0.9158 0 0zm421.8-0.2939c2.317-3.77 2.317 3.77 0 0zm-34.89-3.078c1.962-8.318 8.106 8.063 0 0zm-79.73-0.3604c-0.3394-6.443 9.494 6.235 0 0zm-55.3-0.8815c5.278-4.199 5.839 6.336 0 0zm81.28 0.8c-0.0611-4.564 9.076 2.825 0 0zm-447.2-0.9758 1.394 0.3064zm264.2-0.3726c24.48-1.025 124.4 1.04 54.55 0.8332-18.19-0.1096-36.37-0.5137-54.55-0.8332zm106.4-0.5874 1.394 0.3064z" fill="#a2a2a2"/>
        <path d="m161 826.4c5.16-3.583-1.598 3.013 0 0zm6.402-2.268c5.151-17.7 3.528 13.17 0 0zm238.2 2.774 10.01-0.1561zm151.7-0.3865c1.264-3.64 2.155 3.718 0 0zm-206.7-0.7109c17.56-0.959 14.09 1.353 0 0zm22.14 0.0457 2.833 0.0642zm185.8-4.615c-1.252-12.78 5.856 3.624 0 0zm-177.4-2.4c2.317-3.77 2.317 3.77 0 0zm-34.85-1.574c-0.9158-5.802 5.048 2.319 0 0zm57.22-0.0771c-20.02-7.753-120.2-3.803-61.64-14.74 30.68 13.56 96.47 14.87 60.82-31.98-17.86 9.79-74.31-5.051-26.94-3.506 37.04-18.29 57.77 45.42 27.77 50.22zm-30.53-9.869c2.705-4.116 4.192 4.238 0 0zm-52.32-2.88c2.155-3.718 1.264 3.64 0 0zm117.1-1.51c4.055-5.462 4.368 6.615 0 0zm-267.8-1.906c3.136-3.671 1.413 5.151 0 0zm119 0.5367c3.472-4.046 3.472 4.046 0 0zm244.8-7.837c-25.28-8.598-112.2 9.943-57.97-13.27 7.328-22.59-34.93-26.47 6.738-19.21-29.4 57.63 93.11 12.06 76.56 34.57-8.028 1.344-16.59-3.371-25.34-2.084zm-164.3-0.4987 1.394 0.3063zm72.18-2.224c3.472-4.046 3.472 4.046 0 0zm-164.7-1.855c-31.39-15.09-108 16.66-105.2-28.23 0.5972 39.53 92.09 26.37 65.38-23.18-27.93-38.31 71.23-11.06 9.62-17.06-38.04 26.05 19.33 101.3 26.59 40.81 13.09 5.692-21.63-37.61 1.098 19.21l2.816 6.369zm39.88 0.3347c3.366-4.617 2.908 5.636 0 0zm117.1 0.3811c-22.82 2.353-19.42-16.89 4.335-0.9459zm-147.4-0.7811c3.472-4.046 3.472 4.046 0 0zm21.6-0.1816c-34.37-2.726 16.92 2.91 6.703-19.22-9.974 6.946 37.41-10.25 5.4-1.534-6.188 4.618 0.1692 25.56-12.1 20.75zm185.7-9.749c-3.391-18.79 8.692 4.98 0 0zm46.64-1.59c3.458-7.191 3.458 7.191 0 0zm-149.1-1.2c0.7689-16.37 8.907 6.709 0 0zm169-3.939c-2.166-51.61 7.696-11.29 0 0zm-359 1.608c-4.539-9.283 12.54 2.42 0 0zm213.4 0.1717c-6.725-12.77 9.156-4.098 0 0zm-90.44-1.136 1.394 0.3063zm15.09-2.464c0.5287-12.11 10.09 13.39 0 0zm206.1 1.008c-4.522-22.56 22.62 6.28 0 0zm-365-7.488c-3.354-18.06 19.7 6.508 0 0zm133.5-2.64c1.22-14.8 3.478 9.018 0 0zm62.77 1.744c-22.2 2.946-32.29-1.916-30.94-5.25 18.31-2.917 41.41 2.141 46.54-3.444 54.49 9.482 5.172 10.12-15.6 8.695zm-58.02-1.456c-3.493-16.66 32.97 11.58 0 0zm200.7-0.9053c3.224-3.554 3.734 2.17 0 0zm10.08-2.503c3.295-3.993 2.483 3.915 0 0zm10.08-0.96c2.317-3.77 2.317 3.77 0 0zm-210.2-1.95c3.224-3.554 3.734 2.17 0 0zm81.12-1.89c7.186-20.7-14.9-30.71-9.358-33.71 27.87-24.78 14.85 27.28 9.358 33.71zm-238.6-5.817c3.206-5.25 1.292 6.827 0 0zm200.6-2.823c2.317-3.77 2.317 3.77 0 0zm-201.3-1.835c-3.048-8.009 7.319 0.6706 0 0zm143.7 0.8751c4.624-4.201 4.624 4.201 0 0zm100.4-3.73c4.417-5.936 5.761 4.285 0 0zm-97.51-2.099c4.946-7.728 7.648 7.555 0 0zm44.16-0.8911c3.295-3.993 2.483 3.915 0 0zm8.17-0.9757c3.682-2.388 1.924 3.702 0 0zm91.26-0.0914c-4.784-16.5 41.03 15.01 50.8-16.39 23.22-2.099 72.38 0.887 20.02 0.2593-25.87 5.055-40.81 24.44-70.82 16.13zm-42.15-4.373c-3.964-12 2.643-3.523 0 0zm-79.54-1.936 1.394 0.3064zm-149.6-2.944c-28.65-10.83 15.75-9.64 0.5271 1.228zm156 0.7043c3.682-2.388 1.924 3.702 0 0zm36.17-0.7402c-8.066-6.113 8.034-1.502 0 0zm-52.78-1.681c-47.82-12.23 96.15-8.908 22.65-3.947l-11.77 2.009zm-15.41-2.363c0.8323-4.369 0.8323 4.369 0 0zm103.9-0.5214c1.445-6.75 6.121 5.783 0 0zm10.23 0.5214c-13.18-2.669 19.44 2.006 0 0zm-227.4-1.774c4.851-6.449 12.86 4.323 0 0zm186.6-0.0993c-2.83-7.709 26.84 5.304 0 0zm-87.44-3.057c20.39-6.848 18.79 6.149 0 0zm259.6-12.45c-1.556-30.88 0.2258 22.31-6e-5 0zm-211.8 7.824c2.082-3.968 2.373 3.188 0 0zm34.95-0.926c-0.0125-4.927 4.401 2.215 0 0zm-185.3-9.627c1.285-9.008 9.228 4.027 0 0zm-27.6-0.5781c-5.908-32.36 7.639-13.84 0 0zm56.96-1.304c-1.03-8.737 9.067 3.629 0 0zm187.1-0.0926c2.317-3.77 2.317 3.77 0 0zm-162.6-2.56c-0.1797-9.365 12.21 5.663 0 0zm-51.04-6.08c2.483-3.915 3.295 3.993 0 0zm114.8 0.0462c-5.93-10.17 8.718 0.5571 0 0zm98.48-6.455c-4.41-7.162 9.801 0.0736 0 0zm-192.1-6.312c4.692-11.03 0.6059 7.732 0 0zm-26.99-3.473c12.78-23.01 11.28 17.29 0 0zm120.5-1.624c3.029-3.524 0.3385 4.903 0 0zm-127.7-0.4234c4.157-4.53 3.297 3.291 0 0zm61.09-0.48c5.21-6.214 1.093 5.074 0 0zm309.4-2.16c-1.632-52.93-78.64 1.238-99.7-22.75 26.11 16.82 111.7-30.92 99.7 22.75zm-374.7-1.82c-1.748-5.884 6.743 2.047 0 0zm228.8-0.82c2.296-5.305 2.296 5.305 0 0zm-233.9-4.327c-14.85-18.99 22.53-2.464 0 0zm155.2 7e-3c2.317-3.77 2.317 3.77 0 0zm-36.48-1.496c18.7-7.921-11.5-21.9 12.1-26.18-7.863 14.31 11.69 33.68-12.1 26.18zm-129.6-1.864c2.296-5.305 2.296 5.305 0 0zm147.6 0.7854c17.4-8.632 58.05-31.78 30.89-52.42-43.82-2.515 18.04-7.752 12.84-19.32 8.863 24.74 64.14 6.36 63 41.43 9.804 18.05-0.1257 39.64 4.183 7.54-11.75-5.71-30.44-50.22-44.03-28.31 40.04-11.07-55.17 29.76-6.33 36.92 35.29-10.77 52.68 13.07 4.823 7.288-22.25-1.396-43.66 5.461-65.38 6.878zm46.81-13.99c-3.91-40.39-1.24 24.48 0 0zm-20.64 6c-3.295-3.993-2.483 3.915 0 0zm32.45-1.118c-4.587-8.845-8.218 8.792 0 0zm-13.84-27.38c-3.848-21.48-2.143 15.29 0 0zm-1.324-9.414c7.547-18.9-10.59-6.634 0 0zm11.12-4.328c7.47-6.125-18.84 3.111 0 0zm-35.12-6.72c-2.155-3.718-1.264 3.64 0 0zm44.69 55.76c-0.0125-4.927 4.401 2.215 0 0zm143.9-1.042c1.264-3.64 2.155 3.718 0 0zm-330.7-3.257c6.14-9.271 8.785 8.795 0 0zm30-1.272c-3.785-7.03 11.38 0.9696 0 0zm95.76-1.23c2.317-3.77 2.317 3.77 0 0zm-70.87-2.573c7.43-8.406 6.917 7.298 0 0zm70.55-1.907c3.126-10.95 15.29-2.642 0 0zm-5.288-2.24c0.8323-4.369 0.8323 4.369 0 0zm-148.1-5.04c-5.993-25.88 2.415-21.36 2.491-0.2563zm25.53-1.68c3.007-10.14 11.04 5.739 0 0zm17.76-2.846c5.138-10.01 8.89 6.337 0 0zm19.61-3.021c4.197-10.23 9.951 6.536 0 0zm88.87-0.37c4.665-8.604 7.479 7.323 0 0zm91.91-0.5924c-12.78-1.766 10.53-8.309 0 0zm-163.3-1.357c1.304-9.325 11.89 6.165 0 0zm88.2 0.5066c5.426-4.541 3.167 3.012 0 0zm136.9-2.242c1.194-8.238 9.77 5.785 0 0zm-163.3-1.655c3.206-5.25 1.292 6.827 0 0zm180.5-0.3206c6.114-11.29 8.447 7.152 0 0zm-61.36-1.143c0.8163-3.618 0.7672 4.607 0 0zm-237.9-0.07579c-4.11-6.732 8.886 0.7415 0 0zm351.3-0.5162c-3.039-21.25 20.79 5.251 0 0zm-31.87-1.183c6.473-9.927 7.591 7.82 0 0zm18.72-0.3194c-9.887-9.011 17.98-0.5304 0 0zm-117.6-2.145c1.6-5.652 1.695 5.352 0 0zm-180.8 0.3461c-0.0692-6.373 6.203 3.314 0 0zm326.4-0.1061c-7.801-39.89 6.846-21.3 0 0zm-248.3-1.555c-23.93-2.693-3.812-42.65-3.829-10.42 1.133 1.055 9.297 7.829 3.829 10.42zm3.474-2.603c-14.87-22.33 29.83-28.36 2.525-8.64-0.0831-11.09-0.3588 19.02-2.525 8.64zm-123.2-0.5874 2.833 0.0642zm19.37-1.65c-0.741-8.777 10.82 4.707 0 0zm11.09-3.444c2.317-3.77 2.317 3.77 0 0zm26.88 0c2.155-3.718 1.264 3.64 0 0zm80.33-2.306c-0.3486-7.449 5.363 4.955 0 0zm80.23 0.6686c-7.309-7.202 11 2.048 0 0zm-216.3-2.237c-3.508-13.41 8.329 4.131 0 0zm16.34 1.178c0.9216-9.24 6.643 2.275 0 0zm36.48-0.0715c4.569-6.46 4.766 4.359 0 0zm283.7-0.1602c-1.052-5.328 4.851 2.507 0 0zm-101.3-4.808c3.206-5.251 1.292 6.827 0 0zm-237.6 9e-3c-1.209-4.513 4.98 2.84 0 0zm119.1-0.6304c-0.8518-4.2 3.207 4.983 0 0zm180.9-0.2816c2.155-3.718 1.264 3.64 0 0zm-325.9-2.88c1.264-3.64 2.155 3.718 0 0zm346.8-1.346c4.402-5.762 3.125 9.599 0 0zm-98.19-8e-3c-2.812-55.48 27.95 16.8 0 0zm116.7 0.3937c-0.8687-3.738 4.67 4.549 0 0zm-283.2-0.96c2.155-3.718 1.264 3.64 0 0zm-58.11-3.892c4.377-10.03 9.712 5.532 0 0zm120.8-0.9907c-4.435-11.34 10.02-15.75 0 0zm38.77-0.5832c-2.319-5.048 5.802 0.9158 0 0zm178.9-0.3572c-2.179-5.778 7.504 1.184 0 0zm-320.1-0.9254c1.222-8.312 8.27 4.909 0 0zm18.74-3.313c9.178-10.04 6.908 8.112 0 0zm158.4-0.0415c-1.762-7.5 6.834 5.504 0 0zm25.26-1.417c-6.871-10.04 9.747 5.892 0 0zm-86.35-0.5376 2.237-1.74zm-80.01-0.8841c9.178-10.04 6.908 8.112 0 0zm158.4 0.4617c3.472-4.046 3.472 4.046 0 0zm68.16-1.688c5.452-9.714 9.668 8.11 0 0zm-154.6-2.505c2.579-13.78 4.158 10.67 0 0zm172.3 0.3243c2.324-8.917 9.401 5.596 0 0zm-327.1-1.03c-10.99-33.18 6.862-12.48 0 0zm347-1.582c9.585-10.14 5.652 8.291 0 0zm-321.3-0.0574c-1.42-10.48 13.03 2.663 0 0zm338.2-1.686c10.08-13.2 6.079 8.48 0 0zm-131.3-0.417c4.969-8.554 5.24 8.829 0 0zm14.85 0.48c-23.87-15 10.93-6.865 0 0zm-99.54-1.418c-18.67-4.691-27.32-32.92-10.56-36.06-5.418-25.35-19.44-21.72-18.61-41.68-1.868-7.36 13.75-37.16-18.49-41.22 10.5-21.58-16.06-29.87-1.954-47.7-20.79-8.09-9.613-20.75-27.5-39.16 30.63-29.7-63.22-40.35-14.71-74.05 36.52-4.296 83.8-59.66 110.1-36.06-24.93 33.63 42.48 42.57 14.47 64.68 16.44 28.59 26.94 24.33 22.86 56.62 29.52 8.85-4.031 36.36 34.02 55.25 0.2054 25.6-33.88 19.5-1.148 2.788-12.98-10.52-32.08-15.15-26.94-44.75-2.105-43.35-84.9-17.86-53.54 11.26 18.16-13.46 77.83-15.35 22.1-3.836-26.31 20.17-102.7 5.424-70.35 49.8 16.13 9.443 20.87 63.38 31.79 93.55-16.61 15.09 21.69 30.91 8.401 30.58zm-33.54-155.9c58.96-3.75-5.105-77.71-18.55-21.63 8.846 3.022 6.277 28.57 18.55 21.63zm-2.277-12.36c-18.84-9.514 15.27-1.722 0 0zm13.31-6.688c2.926-9.416 12.09 5.1 0 0zm-22.68-3.728c-4.022-9.366 10.58 4.127 0 0zm4.11-5.449c4.323-5.251 5.249 3.034 0 0zm-15.6 7.915c10.46-19.6-29.95-40.02-3.178-12.98 0.3629 4.79-8.506 20.25 3.178 12.98zm8.4-17.69c2.305-3.53-11.67 4.898 0 0zm50.4-1.763c43.77-11.15-27.7-31.68-5.442-4.377-8.12 4.978 0.7266 7.224 5.442 4.377zm-56.12-1.134c43.82-24.32-37.18-41.14 0 0zm43.01-1.464c-3.092-3.847 1.093 4.814 0 0zm-15.69-3.319c-0.4983-3.806-7.622 5.385 0 0zm13.09-3.139c-5.894-13.4 3.862 13.33 0 0zm-19.05 1.027c41.01-31.26-39.98-36.88 0 0zm0.1927-9.648c4.53-3.305 5.87 3.747 0 0zm58.64 7.651c45.77-19.25-24.53-97.69-51.93-48-3.993 37.71 44.12-5.365 41.17 28.87 27.03-29.15-15.51 25.91 10.76 19.13zm-4.423-6.517c-6.786-20.02 17.82 2.292 0 0zm-21.15-41.3c0.333-7.559 5.74 4.282 0 0zm50.13 40.45c-4.591-28.4-7.965 7.344 0 0zm-68.05-3.145c-5.163-7.126 3.86 10.52 0 0zm17.98-0.7372c34.29-22.38-41.04-23.42-9.805 3.721zm-10.08-3.849c2.155-3.718 1.264 3.64 0 0zm-11.04-4.8c-7.028-15.88 5.156 18.14 0 0zm-35.04 8e-3c-2.901-29.6 34.86 10.06 20-26.05-15.53 1.408 1.951-60.7-38.68-30.03-11.99 4.017 2.693 60.07 18.68 56.08zm7.2-40.33c1.264-3.64 2.155 3.718 0 0zm-4.8-11.52c2.705-4.116 4.192 4.238 0 0zm6.725 48.95c3.014-15.47-8.033 5.13 0 0zm-36.19-17.02c-2.634-31.63-36.15-23.71-5.769-5.551 0.5332 4.217-4.899 16.73 5.769 5.551zm8.118-0.488c-0.4414-33.53-25.99-10.97 0 0zm42.84-12.13c-5.267-9.29 3.604 11.81 0 0zm61.05-9.132c-10.69-18.34 2.489 22.17 0 0zm-45.25 1.309c72.26-7.774-15.3-76.24-22.06-23.52 3.198 11.04 6.258 33.33 22.06 23.52zm-15.7-22.04c2.317-3.77 2.317 3.77 0 0zm39.94-0.576c-1.858-6.981 3.652 4.24 0 0zm-43.16-9.504c1.551-6.62 5.487 6.565 0 0zm-0.4956 30.55c-3.773-3.673 2.767 7.465 0 0zm47.92-43.53c12.91-35.38-32.26 2.599 0 0zm-117.7 309c3.077-11.77 9.87 5.451 0 0zm350-3.526c-10.69-52.03 8.521-2.089 0 0zm-239-0.6479c5.873-6.919 9.658 3.278 0 0zm-91.51-0.8661c3.685-9.814 10.09 6.796 0 0zm163.5 0.5037c2.706-9.173 8.721 6.394 0 0zm-200.6-2.998c2.317-3.77 2.317 3.77 0 0zm54.27-0.905c1.127-10.24 13.27 5.51 0 0zm66.69-0.4323c3.112-7.724 4.395 4.327 0 0zm8.137-0.655c1.956-13.53 7.256 6.241 0 0zm20.66 0.1482c-2.821-44.4 58.24 5.277 0 0zm18.49-4.083c-2.246-14.54-17.06 11.42 0 0zm-5.279-5.593c20.83-10.48-23.4 2.446 0 0zm56.63 9.898c1.334-25.43 2.587-10.85-2.936-41.49 7.756 25.03 19.55-1.923 11.86 26.8 19.62 4.332-8.488 2.689-8.926 14.7zm-239.7-4.294c-1.939-23.7 21.15 8.776 0 0zm206.5 0.2492c-33.74-7.475 25.18-39.62-13.39-29.43-3.295-25.33-8.033 1.531-14.15-31.5-7.163-29.39-5.851-34.73 7.093-3.712-4.107-25.04-16.82-44.32 1.91-12.62 26.99 3.09 57.63-12.11 56.86 20.4-24.56 18.03 1.013-29.58-38.11-14.39-53.97 19.16 31.56 22.08 15.79 22.67-53.09 10.12-3.735 12.56 7.732 17-32.18-4.496-41.44 41.87-7.881 19.83 25.21-8.942-7.666 13.91-15.86 11.76zm16.49-32.25c-3.886-5.67-14.73 10.37 0 0zm-35.36-18.48c-3.669-22.82-4.587 9.875 0 0zm38.88-24.3c-5.938-7.609 0.8378 7.621 0 0zm73.95 74.62c6.716-10.05 8.669 6.471 0 0zm-281.3-0.6669c-3.569-6.056 8.138 1.93 0 0zm16.19-1.177c-7.49-17.48 13.3-1.024 0 3e-5zm125.9 0.24c7.418-4.881 0.079 3.924 0 0zm156.7-1.111c-0.9317-9.931 12.04 6.151 0 0zm-160.1-0.8994c4.2-3.342 6.262 2.115 0 0zm-18.08-0.9725c-6.943-11.03 4.774-3.183 0 0zm-63.16-1.513 1.394 0.3063zm261.3-1.2c5.771-8.824 6.493 7.232 0 0zm-319.2-0.06377c2.155-3.718 1.264 3.64 0 0zm36-0.8573c2.377-5.447 3.806 3.597 0 0zm299.9-2.263c2.967-10.97 16.33 7.281 0 0zm-142.5-0.6173c2.377-5.447 3.806 3.597 0 0zm86.4-0.1027c3.472-4.046 3.472 4.046 0 0zm-253.9-0.96c2.317-3.77 2.317 3.77 0 0zm27.95-2.491c-14.43-17.62 10.04 0.5983 0 0zm-58.79-1.784c-1.521-9.341 6.09 2.809 0 0zm39.32 0.9906c5.871-9.799 11.96 7.845 0 0zm284.4-3.196c-5.578-12.78 9.844 5.999 0 0zm-145.6-1.2c0.7596-6.703 2.095 6.846 0 0zm-205.4 0c2.317-3.77 2.317 3.77 0 0zm149.3-3.515c-7.438-18.84-17.68-84.5-4.12-30.06 0.6072 8.919 11.46 22.81 4.12 30.06zm217.7-1.057c-2.646-9.41 6.772 6.616 0 0zm-171.4 1.118c-1.262-7.779 7.011 2.434 0 0zm8.894-1.769c0.1858-8.141 2.622 6.85 0 0zm-180.8-1.86c3.645-11.95 9.855 5.532 0 0zm57.9-0.597c2.483-3.915 3.295 3.993 0 0zm121.4-1.92c1.264-3.64 2.155 3.718 0 0zm-162.1-1.6c0.6496-9.795 11.47 4.66 0 0zm19.97-5.172c3.125-8.7 8.876 5.512 0 0zm332.2-1.148c-12.53-43.39 7.284-14.02 0 0zm-399.5-2.114c-15.27-44.51 11.42 2.644 0 0zm176.8 0.434c1.264-3.64 2.155 3.718 0 0zm-92.47-1.651c8.059-8.47 8.757 8.312 0 0zm227.5-3.869c9.327-10.32 6.27 7.821 0 0zm-136.5-0.2967c2.86-2.13 1.765 3.641 0 0zm-144-1.863c21.97-11.12 82.19-23.17 27.69-6.247-9.038 2.807-18.23 5.347-27.69 6.247zm297.6-0.4088c6.078-10.35 11.06 8.122 0 0zm20.07-3.191c8.958-12.48 4.956 6.74 0 0zm-176-3.054c0.0912-4.891 3.166 3.295 0 0zm5.315-1.586c0.8162-3.618 0.7675 4.607 0 0zm188.1 0.0983c5.752-9.206 12.17 8.911 0 0zm-326.6-0.1941 1.394 0.3063zm136.5-8.408c1.413-5.151 3.136 3.671 0 0zm70.08 0.337c-6.207-12.6 3.395-4.771 0 0zm60.93-3.806c4.377-10.03 9.712 5.532 0 0zm-137.7-0.9644c2.86-2.13 1.765 3.641 0 0zm154.6-3.149c8.513-11.34 7.463 7.376 0 0zm-199.1-1.114c0.936-5.124 2.135 5.252 0 0zm-40.29-2.08c-3.502-4.232 4.4 0.6173 0 0zm259.5-1.744c5.13-14.4 9.502 6.82 0 0zm-354.8-0.8568c-0.7194-7.137 4.833 3.453 0 0zm176.9-1.799c-0.5005-13.6 5.007 11.69 0 0zm5.62 1.334c-6.699-11.52 3.329-3.91 0 0zm190.4-2.098c-0.3636-9.19 11.24 2.582 0 0zm12.34-1.47c2.829-21.43 17.99 11.03 0 0zm11.91-16.36c-4.838-38.44 11.66 39.94 0 0zm-367.9 9.104c22.05-11.77 80.54-22.78 27.23-7.843-9.009 2.843-18.02 5.724-27.23 7.843zm223.7-1.258c-6.668-12.28 8.808 4.301 0 0zm-195.1-2.654c10.82-5.372-7.326 6.873 0 0zm31.98-0.3527c0.8162-3.618 0.7674 4.607 0 0zm39.76-0.4c1.264-3.64 2.155 3.718 0 0zm-137.6-3.208c-9.242-18.99-0.7304-26.54 0 0zm9.666-0.8237c-4.505-22.23 21.37 5.749 0 0zm340.1 0.192c2.155-3.718 1.264 3.64 0 0zm-254.2-3.52c-3.502-4.232 4.4 0.6173 0 0zm115.2-0.9456c15.57-42.83-94.28 9.598-30.95-14.23 29.98-22.78 39.52 20.15 73.02 3.333-15.52 8.829-26.18 9.245-42.06 10.9zm-184.7-1.871c3.254-10.76 7.808 5.316 0 0zm128 0.7888c0.3514-7.806 6.325-1.669 0 0zm80.27-1.834 3.324 0.0188zm-67.44-4.195c2.86-2.13 1.765 3.641 0 0zm-125.1-1.264c4.447-11.91 9.571 7.98 0 0zm272.6-0.9625c2.732-11.45 14.06 7.855 0 0zm-138.9-0.485c4.933-5.236 15.54 4.86 0 0zm-26.8-2.851c-2.057-8.121 4.62 5.549 0 0zm-2.955-0.6771c3.136-3.671 1.413 5.151 0 0zm44.16 0.5367c4.157-4.53 3.297 3.291 0 0zm141.8-1.323c3.016-12.43 10.4 6.876 0 0zm-308.3-1.557c3.03-4.182 1.477 3.964 0 0zm37.35-0.1456c3.113-11.71 10.39 5.333 0 0zm141.2 0.1456c2.155-3.718 1.264 3.64 0 0zm40.48-1.6c-3.502-4.232 4.4 0.6172 0 0zm109.1-1.857c4.189-11.15 11.29 6.283 0 0zm-94.68-0.1431c-6.857-14.77 12.66 1.022 0 0zm-179.6-3.585c5.949-12.31 8.294 7.457 0 0zm68.07-1.978c-4.729-14.17 6.529 11.36 0 0zm-125.7 1.584c2.135-5.779 4.463 3.418 0 0zm122.9-0.718c-1.222-6.351 4.095 6.086 0 0zm226-0.3243c4.674-10.02 11.34 8.619 0 0zm-64.32-0.0183c22.67-8.343 78.66-23.85 27.05-6.53-8.78 2.998-17.76 5.742-27.05 6.53zm-64.32-4.8c3.535-4.136 4.635 4.277 0 0zm-35.33-2.4c1.307-4.394 0.2546 6.126 0 0zm-170.1-0.4169c-1.015-8.88 9.039 5.777 0 0zm105.6 0.8402c2.86-2.13 1.765 3.641 0 0zm-153.1-1.912c-1.052-5.328 4.851 2.507 0 0zm408.9-1.632c-20.4-53.96 11.49 3.981 0 0zm-320.2 0.48c-7.229-20.08 8.469 3.196 0 0zm169.6-0.72c1.264-3.64 2.155 3.718 0 0zm-236.2-9.6c1.96-9.654 10.54 4.95 0 0zm42.59-1.837c-4.968-8.849 9.375 5.596 0 0zm189.7-1.043c-1.952-8.679 3.753 5.766 0 0zm-172.2-2.48c0.8162-3.618 0.7674 4.607 0 0zm-91.04-1.036c-20.66-32.56 8.208-8.717 0 0zm47.45 4e-3c1.684-9.905 11.12 4.412 0 0zm269.1-2.785c3.136-3.671 1.413 5.151 0 0zm-226-2.862c-3.704-5.617 6.625 1.826 0 0zm169.3-0.442c-0.7039-6.802 3.683 7.243 0 0zm-173.9 0.3042 1.394 0.3063zm291.3-2.896c-3.33-13.38 4.889 11.31 0 0zm-310.8 1.57c2.619-10.98 14.08 6.414 0 0zm-42.02-2.219c3.47-10.16 10.32 5.604 0 0zm58.29-4.585c4.292-12.82 8.334 6.027 0 0zm-42.21-1.866c3.859-13.11 10.79 4.627 0 0zm200.7-1.828c4.974-4.87 3.633 3.592 0 0zm133-0.56c0.8163-3.618 0.7673 4.607 0 0zm-62.88-1.017c-1.012-6.732 4.171 6.02 0 0zm-289.8-1.303c0.7596-6.703 2.095 6.846 0 0zm206.2-1.92c-1.107-9.707 6.238 5.361 0 0zm-168.3-2.089c-0.4069-11.14 11.33 4.328 0 0zm249.9-0.7908c1.264-3.64 2.155 3.718 0 0zm94.07-2.891c-18.39-44.95 9.357-10.89 0 0zm-370.1-2.869c2.644-9.456 2.586 9.223 0 0zm274.6 0.7495c13.78-8.821 17.94-1.826 0 0zm-233.3-2.22c7.568-10.91 6.153 7.6 0 0zm293.9-2.849c-5.667-16.08 5.439 8.058 0 0zm-45.78 0.5497c24.95-13.21 57.16-14.91 13.1-0.5915l-6.567 1.102zm-339.8-1.647c-0.6169-7.107 4.861 5.58 0 0zm48.88 0.6174c1.264-3.64 2.155 3.718 0 0zm23.43-2.16c-14.58-16.16 8.338 2.691 0 0zm-62.93 0.2464c-10.12-17.35 18.36-0.3782 0 0zm129.8-4.678-1.399-3.03 1.399 3.03zm186.9-5.16c8.229-13.68 7.486 7.126 0 0zm-303.9-0.4088c-0.5284-11.13 15.3 3.637 0 0zm48.32-0.32c3.295-3.993 2.483 3.915 0 0zm-3.36-1.92c3.295-3.993 2.483 3.915 0 0zm274.8-3.775c2.049-9.688 11.95 6.9 0 0zm-353-2.313c-20.74-40.35 7.895-14.88 0 0zm49.29-0.6737c1.486-11.78 10.17 4.65 0 0zm43.89-1.95c3.032-4.198 3.032 4.198 0 0zm-16.5-0.888c2.155-3.718 1.264 3.64 0 0zm296.1-1.106c4.206-12.41 10.61 6.402 0 0zm-231.1-0.4944c-5.807-5.964 3.609 4.391 0 0zm6.74 0.02 1.593-2.03zm-59.95-2.898c2.446-10.81 4.332 5.699 0 0zm-20.9-1.324c1.3-10.63 14.65 4.841 0 0zm53.31-0.3352c3.268-3.704 2.727 1.99 0 0zm267.6-1.438c2.599-10.03 13.29 5.027 0 0zm14.64-1.064c-5.546-20.86 21.27 5.548 0 0zm-319-4.48c-2.509-10.97 15.66 2.107 0 0zm332.8-2.48c-19.71-41.28 4.064-15.82 0 0zm-59.82-4.377c1.944-5.337 3.873 2.313 0 0zm-35.52-10.71c6.824-13.48 6.183 7.853 0 0zm16.32-6.735c5.089-9.535 10.28 6.671 0 0zm-356.2-0.555c3.136-3.671 1.413 5.151 0 0zm55.42-12.22c-13.28-27.31-34.01-86.31-54.83-77.79 18.8-31.49 68.78 104.4 54.83 77.79zm319.5 6.159c3.337-11.5 11.07 5.973 0 0zm-304.2-4.08c5.16-3.583-1.598 3.013 0 0zm320.5-1.081c3.987-11.42 11.64 6.999 0 0zm-61.65-3.002c4.252-9.528 10.95 5.971 0 0zm-341.5-4.118c-23.17-38.17 7.945-8.889 0 0zm291.8-1.856c-1.858-6.981 3.652 4.24 0 0zm66.38-0.7604c-1.978-9.296 15.22 4.856 0 0zm71.52-1.275c-21.55-30.94-1.857-30.19 0 0zm-53.8-7.023c-1.65-7.75 15.07 4.286 0 0zm16.32-6.878c-0.5011-10.59 14.3 4.79 0 0zm-110-3.247c-1.756-6.691 5.205 5.652 0 0zm78.14-7.121c2.155-3.718 1.264 3.64 0 0zm-200.6-1.372 3.855-2.05zm164.2-7.203c5.943-10.13 6.152 6.787 0 0zm-151.2-0.06469c4.192-4.238 2.705 4.116 0 0zm-191.1-2.928c-1.052-5.328 4.851 2.507 0 0zm7.95-1.949c-6.434-19.57 20.03 2.447 0 0zm34.51-1.21c0.918-10.29 12.06 2.655 0 0zm315.7-0.3807c0.66-11.75 12.45 4.136 0 0zm-187.5-3.488c-9.492-18.85-34.76-67.33-19.05-62.91 1.378 21.37 36.37 24.71 15.65 54.26 9.006 10.37 28.37-4.519 3.394 8.654zm-2.206-32.17c4.547-12.06-12.15 6.635 0 0zm-1.807-6.85c-0.5493-11.94-12.08 7.533 0 0zm-14.58-8.38c-4.636-18.47-11.49-5.488 0 0zm65.44 44.47 3.855-2.05zm210.5-0.7876c-25.14-42.91 4.042-14.28 0 0zm-51.41-1.292c0.6385-9.314 13.9 2.829 0 0zm-371.7-5.188c3.295-3.993 2.483 3.915 0 0zm227-0.3773c3.268-3.704 2.727 1.99 0 0zm161.7-2.545c1.999-11.99 11.97 4.666 0 0zm-215-4.758c2.483-3.915 3.295 3.993 0 0zm73.44-3.84c-10.97-29.48-53.52-108.7-29.3-96.04-18.74 26.63 43.92 80.47 29.3 96.04zm20.91-9.828c6.709-7.079 3.349 2.008 0 0zm7.889-3.989c3.268-3.704 2.727 1.99 0 0zm-215.6-4.777c24.38-16.89 22.28-8.1 1.7 1.002zm328.6 0.2773c-7.938-22.61 24.33 2.887 0 0zm-99.6-2.803c6.758-5.324-0.9622 3.911 0 0zm113.1-5.949c-21.17-30.17 1.752-14.9 0 0zm-94.85-2.245c-4.784-33.65-47.25-93.77-52.91-89.05 21.86-7.212 59.39 80.53 52.91 89.05zm-183.4-6.071c-5.692-20.02 21.86 4.115 0 0zm30.79 0.8247c2.155-3.718 1.264 3.64 0 0zm-56.64-3.691c22.8-17.18 37.63-9.516 0 0zm243.8-8.241 3.855-2.05zm-70.56-1.508c1.264-3.64 2.155 3.718 0 0zm79.28-3.23 3.934-1.785zm-209.2-7.181c20.89-18.79 64.1-29.34 15.58-6.414l-7.925 4.003zm235-5.791c2.611-21.22-7.277-28.37 7.001-4.326l-1.606 3.64zm-19.94-52.22c-11.62-36.36 17.63 33.1 0 0zm-71.31-15.12c11.67-13.6 32.21-11.66 5.362-1.562zm42.62-8.228c0.0864-22.73 20.73 10.48 0 0zm13.63-7.037c0.7114-5.179 4.094 3.963 0 0zm-16.2-4.546c-2.263-5.741 5.741 2.263 0 0zm23.6-73.03c17.14-0.75 22.04 1.09 0 0zm60.24-0.3019c2.86-2.13 1.765 3.641 0 0zm82.56 0.05666c2.317-3.77 2.317 3.77 0 0zm54.24 0c1.264-3.64 2.155 3.718 0 0zm-258.9-0.6558 1.394 0.3064zm14.82-0.06111c28.25-0.7359 13.75 1.224 0 0zm110.9 0.06111 1.394 0.3064z" fill="#6e6e6e"/>
    </g>
</svg>
